<mxfile host="app.diagrams.net" modified="2020-06-27T20:18:51.150Z" agent="5.0 (Windows NT 6.1; Win64; x64) AppleWebKit/537.36 (KHTML, like Gecko) Chrome/83.0.4103.116 Safari/537.36" etag="qtUkkekimRbYQ8tki91U" version="13.3.5" type="github">
  <diagram id="p2EOLXwsh8mRCK80WWZ6" name="Page-1">
    <mxGraphModel dx="1668" dy="850" grid="1" gridSize="10" guides="1" tooltips="1" connect="1" arrows="1" fold="1" page="0" pageScale="1" pageWidth="827" pageHeight="1169" background="none" math="0" shadow="0">
      <root>
        <mxCell id="0" />
        <mxCell id="1" parent="0" />
        <mxCell id="p9AXQlaozVL-q54wyYoi-161" value="" style="rounded=0;whiteSpace=wrap;html=1;" parent="1" vertex="1">
          <mxGeometry x="-350" y="-180" width="230" height="30" as="geometry" />
        </mxCell>
        <mxCell id="p9AXQlaozVL-q54wyYoi-162" value="API&amp;nbsp;" style="rounded=0;whiteSpace=wrap;html=1;" parent="1" vertex="1">
          <mxGeometry x="-350" y="-270" width="230" height="30" as="geometry" />
        </mxCell>
        <mxCell id="p9AXQlaozVL-q54wyYoi-163" value="" style="rounded=0;whiteSpace=wrap;html=1;" parent="1" vertex="1">
          <mxGeometry x="-350" y="-240" width="230" height="30" as="geometry" />
        </mxCell>
        <mxCell id="p9AXQlaozVL-q54wyYoi-164" value="" style="rounded=0;whiteSpace=wrap;html=1;" parent="1" vertex="1">
          <mxGeometry x="-350" y="-210" width="230" height="30" as="geometry" />
        </mxCell>
        <mxCell id="p9AXQlaozVL-q54wyYoi-165" value="" style="rounded=1;whiteSpace=wrap;html=1;" parent="1" vertex="1">
          <mxGeometry x="-350" y="-150" width="230" height="60" as="geometry" />
        </mxCell>
        <mxCell id="p9AXQlaozVL-q54wyYoi-166" value="&lt;b&gt;DOCKER SERVER&lt;/b&gt;" style="text;html=1;strokeColor=none;fillColor=none;align=center;verticalAlign=middle;whiteSpace=wrap;rounded=0;" parent="1" vertex="1">
          <mxGeometry x="-300" y="-130" width="120" height="20" as="geometry" />
        </mxCell>
        <mxCell id="p9AXQlaozVL-q54wyYoi-167" value="&lt;b&gt;Master&lt;/b&gt;" style="text;html=1;strokeColor=none;fillColor=none;align=center;verticalAlign=middle;whiteSpace=wrap;rounded=0;" parent="1" vertex="1">
          <mxGeometry x="-270" y="-70" width="40" height="20" as="geometry" />
        </mxCell>
        <mxCell id="p9AXQlaozVL-q54wyYoi-168" value="ETCD" style="text;html=1;strokeColor=none;fillColor=none;align=center;verticalAlign=middle;whiteSpace=wrap;rounded=0;" parent="1" vertex="1">
          <mxGeometry x="-270" y="-175" width="40" height="20" as="geometry" />
        </mxCell>
        <mxCell id="p9AXQlaozVL-q54wyYoi-169" value="Scheduler" style="text;html=1;strokeColor=none;fillColor=none;align=center;verticalAlign=middle;whiteSpace=wrap;rounded=0;" parent="1" vertex="1">
          <mxGeometry x="-270" y="-205" width="40" height="20" as="geometry" />
        </mxCell>
        <mxCell id="p9AXQlaozVL-q54wyYoi-170" value="Controll manager" style="text;html=1;strokeColor=none;fillColor=none;align=center;verticalAlign=middle;whiteSpace=wrap;rounded=0;" parent="1" vertex="1">
          <mxGeometry x="-310" y="-235" width="140" height="20" as="geometry" />
        </mxCell>
        <mxCell id="p9AXQlaozVL-q54wyYoi-171" value="" style="rounded=1;whiteSpace=wrap;html=1;" parent="1" vertex="1">
          <mxGeometry x="99.99999999999997" y="-300" width="240" height="60" as="geometry" />
        </mxCell>
        <mxCell id="p9AXQlaozVL-q54wyYoi-172" value="" style="rounded=1;whiteSpace=wrap;html=1;" parent="1" vertex="1">
          <mxGeometry x="99.99999999999997" y="-110" width="240" height="60" as="geometry" />
        </mxCell>
        <mxCell id="p9AXQlaozVL-q54wyYoi-173" value="Kubelet" style="rounded=0;whiteSpace=wrap;html=1;" parent="1" vertex="1">
          <mxGeometry x="109.99999999999997" y="-350" width="100" height="50" as="geometry" />
        </mxCell>
        <mxCell id="p9AXQlaozVL-q54wyYoi-174" value="KubeProxy&amp;nbsp;" style="rounded=0;whiteSpace=wrap;html=1;" parent="1" vertex="1">
          <mxGeometry x="229.99999999999997" y="-350" width="100" height="50" as="geometry" />
        </mxCell>
        <mxCell id="p9AXQlaozVL-q54wyYoi-175" value="&#xa;&#xa;&lt;span style=&quot;color: rgb(0, 0, 0); font-family: helvetica; font-size: 12px; font-style: normal; font-weight: 400; letter-spacing: normal; text-align: center; text-indent: 0px; text-transform: none; word-spacing: 0px; background-color: rgb(248, 249, 250); display: inline; float: none;&quot;&gt;KubeProxy&amp;nbsp;&lt;/span&gt;&#xa;&#xa;" style="rounded=0;whiteSpace=wrap;html=1;" parent="1" vertex="1">
          <mxGeometry x="229.99999999999997" y="-160" width="100" height="50" as="geometry" />
        </mxCell>
        <mxCell id="p9AXQlaozVL-q54wyYoi-176" value="&lt;span&gt;Kubelet&lt;/span&gt;" style="rounded=0;whiteSpace=wrap;html=1;" parent="1" vertex="1">
          <mxGeometry x="109.99999999999997" y="-160" width="100" height="50" as="geometry" />
        </mxCell>
        <mxCell id="p9AXQlaozVL-q54wyYoi-177" value="Docker&lt;span style=&quot;color: rgba(0 , 0 , 0 , 0) ; font-family: monospace ; font-size: 0px&quot;&gt;%3CmxGraphModel%3E%3Croot%3E%3CmxCell%20id%3D%220%22%2F%3E%3CmxCell%20id%3D%221%22%20parent%3D%220%22%2F%3E%3CmxCell%20id%3D%222%22%20value%3D%22%22%20style%3D%22rounded%3D0%3BwhiteSpace%3Dwrap%3Bhtml%3D1%3B%22%20vertex%3D%221%22%20parent%3D%221%22%3E%3CmxGeometry%20x%3D%22530%22%20y%3D%2270%22%20width%3D%22100%22%20height%3D%2250%22%20as%3D%22geometry%22%2F%3E%3C%2FmxCell%3E%3C%2Froot%3E%3C%2FmxGraphModel%3E&lt;/span&gt;" style="text;html=1;strokeColor=none;fillColor=none;align=center;verticalAlign=middle;whiteSpace=wrap;rounded=0;" parent="1" vertex="1">
          <mxGeometry x="189.99999999999997" y="-280" width="40" height="20" as="geometry" />
        </mxCell>
        <mxCell id="p9AXQlaozVL-q54wyYoi-178" value="Docker&lt;span style=&quot;color: rgba(0 , 0 , 0 , 0) ; font-family: monospace ; font-size: 0px&quot;&gt;%3CmxGraphModel%3E%3Croot%3E%3CmxCell%20id%3D%220%22%2F%3E%3CmxCell%20id%3D%221%22%20parent%3D%220%22%2F%3E%3CmxCell%20id%3D%222%22%20value%3D%22%22%20style%3D%22rounded%3D0%3BwhiteSpace%3Dwrap%3Bhtml%3D1%3B%22%20vertex%3D%221%22%20parent%3D%221%22%3E%3CmxGeometry%20x%3D%22530%22%20y%3D%2270%22%20width%3D%22100%22%20height%3D%2250%22%20as%3D%22geometry%22%2F%3E%3C%2FmxCell%3E%3C%2Froot%3E%3C%2FmxGraphModel%3E&lt;/span&gt;" style="text;html=1;strokeColor=none;fillColor=none;align=center;verticalAlign=middle;whiteSpace=wrap;rounded=0;" parent="1" vertex="1">
          <mxGeometry x="189.99999999999997" y="-90" width="40" height="20" as="geometry" />
        </mxCell>
        <mxCell id="p9AXQlaozVL-q54wyYoi-179" value="&lt;b&gt;Worker Node 1&lt;/b&gt;" style="text;html=1;strokeColor=none;fillColor=none;align=center;verticalAlign=middle;whiteSpace=wrap;rounded=0;" parent="1" vertex="1">
          <mxGeometry x="164.99999999999997" y="-230" width="90" height="20" as="geometry" />
        </mxCell>
        <mxCell id="p9AXQlaozVL-q54wyYoi-180" value="&lt;b&gt;Worker Node 2&lt;/b&gt;" style="text;html=1;strokeColor=none;fillColor=none;align=center;verticalAlign=middle;whiteSpace=wrap;rounded=0;" parent="1" vertex="1">
          <mxGeometry x="164.99999999999997" y="-40" width="90" height="20" as="geometry" />
        </mxCell>
        <mxCell id="p9AXQlaozVL-q54wyYoi-181" value="" style="shape=datastore;whiteSpace=wrap;html=1;" parent="1" vertex="1">
          <mxGeometry x="-288" y="505" width="85" height="90" as="geometry" />
        </mxCell>
        <mxCell id="p9AXQlaozVL-q54wyYoi-182" value="" style="shape=note;whiteSpace=wrap;size=16;html=1;dropTarget=0;fontStyle=1" parent="1" vertex="1">
          <mxGeometry x="-261.75" y="540" width="32.5" height="40" as="geometry" />
        </mxCell>
        <mxCell id="p9AXQlaozVL-q54wyYoi-183" value="&lt;b&gt;&lt;font style=&quot;font-size: 14px&quot;&gt;NFS&lt;/font&gt;&lt;/b&gt;" style="text;html=1;align=center;verticalAlign=middle;resizable=0;points=[];autosize=1;" parent="1" vertex="1">
          <mxGeometry x="-269.25" y="480" width="40" height="20" as="geometry" />
        </mxCell>
        <mxCell id="p9AXQlaozVL-q54wyYoi-184" value="docker&amp;nbsp;" style="rounded=0;whiteSpace=wrap;html=1;" parent="1" vertex="1">
          <mxGeometry x="-48" y="490" width="320" height="60" as="geometry" />
        </mxCell>
        <mxCell id="p9AXQlaozVL-q54wyYoi-185" value="" style="aspect=fixed;perimeter=ellipsePerimeter;html=1;align=center;shadow=0;dashed=0;spacingTop=3;image;image=img/lib/active_directory/databases.svg;imageBackground=none;imageBorder=none;strokeWidth=2;" parent="1" vertex="1">
          <mxGeometry x="152" y="420" width="51.02" height="50" as="geometry" />
        </mxCell>
        <mxCell id="p9AXQlaozVL-q54wyYoi-186" value="" style="rounded=0;whiteSpace=wrap;html=1;strokeWidth=2;" parent="1" vertex="1">
          <mxGeometry x="-38" y="390" width="90" height="100" as="geometry" />
        </mxCell>
        <mxCell id="p9AXQlaozVL-q54wyYoi-187" value="cont2" style="rounded=0;whiteSpace=wrap;html=1;strokeWidth=2;" parent="1" vertex="1">
          <mxGeometry x="-28" y="400" width="40" height="40" as="geometry" />
        </mxCell>
        <mxCell id="p9AXQlaozVL-q54wyYoi-188" value="cont1" style="rounded=0;whiteSpace=wrap;html=1;strokeWidth=2;" parent="1" vertex="1">
          <mxGeometry x="-28" y="445" width="40" height="40" as="geometry" />
        </mxCell>
        <mxCell id="p9AXQlaozVL-q54wyYoi-189" value="" style="rounded=0;whiteSpace=wrap;html=1;strokeWidth=2;fillColor=none;" parent="1" vertex="1">
          <mxGeometry x="132.51" y="390" width="90" height="100" as="geometry" />
        </mxCell>
        <mxCell id="p9AXQlaozVL-q54wyYoi-190" value="&lt;b&gt;volume&lt;/b&gt;" style="shape=cylinder;whiteSpace=wrap;html=1;boundedLbl=1;backgroundOutline=1;strokeWidth=2;fillColor=none;" parent="1" vertex="1">
          <mxGeometry x="42" y="450" width="50" height="30" as="geometry" />
        </mxCell>
        <mxCell id="p9AXQlaozVL-q54wyYoi-191" value="" style="endArrow=classic;html=1;exitX=0;exitY=0;exitDx=32.5;exitDy=28;exitPerimeter=0;entryX=0;entryY=0.75;entryDx=0;entryDy=0;" parent="1" source="p9AXQlaozVL-q54wyYoi-182" target="p9AXQlaozVL-q54wyYoi-188" edge="1">
          <mxGeometry width="50" height="50" relative="1" as="geometry">
            <mxPoint x="-68" y="580" as="sourcePoint" />
            <mxPoint x="-18" y="530" as="targetPoint" />
          </mxGeometry>
        </mxCell>
        <mxCell id="p9AXQlaozVL-q54wyYoi-192" value="" style="endArrow=classic;html=1;entryX=0;entryY=0.5;entryDx=0;entryDy=0;" parent="1" target="p9AXQlaozVL-q54wyYoi-190" edge="1">
          <mxGeometry width="50" height="50" relative="1" as="geometry">
            <mxPoint x="12" y="465.5" as="sourcePoint" />
            <mxPoint x="62" y="415.5" as="targetPoint" />
          </mxGeometry>
        </mxCell>
        <mxCell id="p9AXQlaozVL-q54wyYoi-193" value="" style="endArrow=classic;html=1;exitX=0.04;exitY=0.067;exitDx=0;exitDy=0;exitPerimeter=0;entryX=1;entryY=0.75;entryDx=0;entryDy=0;" parent="1" source="p9AXQlaozVL-q54wyYoi-190" target="p9AXQlaozVL-q54wyYoi-187" edge="1">
          <mxGeometry width="50" height="50" relative="1" as="geometry">
            <mxPoint x="-68" y="580" as="sourcePoint" />
            <mxPoint x="12" y="420" as="targetPoint" />
          </mxGeometry>
        </mxCell>
        <mxCell id="p9AXQlaozVL-q54wyYoi-194" value="" style="endArrow=classic;html=1;entryX=0;entryY=0.25;entryDx=0;entryDy=0;" parent="1" target="p9AXQlaozVL-q54wyYoi-189" edge="1">
          <mxGeometry width="50" height="50" relative="1" as="geometry">
            <mxPoint x="12" y="415" as="sourcePoint" />
            <mxPoint x="62" y="360" as="targetPoint" />
          </mxGeometry>
        </mxCell>
        <mxCell id="p9AXQlaozVL-q54wyYoi-195" value="&lt;b&gt;POD&lt;/b&gt;" style="text;html=1;align=center;verticalAlign=middle;resizable=0;points=[];autosize=1;" parent="1" vertex="1">
          <mxGeometry x="-7" y="371" width="40" height="20" as="geometry" />
        </mxCell>
        <mxCell id="p9AXQlaozVL-q54wyYoi-196" value="DB&amp;nbsp;" style="text;html=1;align=center;verticalAlign=middle;resizable=0;points=[];autosize=1;" parent="1" vertex="1">
          <mxGeometry x="162" y="360" width="40" height="20" as="geometry" />
        </mxCell>
        <mxCell id="p9AXQlaozVL-q54wyYoi-197" value="" style="rounded=0;whiteSpace=wrap;html=1;strokeWidth=2;fillColor=none;" parent="1" vertex="1">
          <mxGeometry x="142" y="410" width="70" height="70" as="geometry" />
        </mxCell>
        <mxCell id="p9AXQlaozVL-q54wyYoi-198" value="&lt;b&gt;DB Container&lt;/b&gt;" style="text;html=1;align=center;verticalAlign=middle;resizable=0;points=[];autosize=1;" parent="1" vertex="1">
          <mxGeometry x="242" y="425" width="90" height="20" as="geometry" />
        </mxCell>
        <mxCell id="p9AXQlaozVL-q54wyYoi-199" value="" style="endArrow=classic;html=1;" parent="1" target="p9AXQlaozVL-q54wyYoi-198" edge="1">
          <mxGeometry width="50" height="50" relative="1" as="geometry">
            <mxPoint x="212" y="438" as="sourcePoint" />
            <mxPoint x="262" y="390" as="targetPoint" />
          </mxGeometry>
        </mxCell>
        <mxCell id="p9AXQlaozVL-q54wyYoi-200" value="access data" style="text;html=1;align=center;verticalAlign=middle;resizable=0;points=[];autosize=1;" parent="1" vertex="1">
          <mxGeometry x="-167" y="515" width="80" height="20" as="geometry" />
        </mxCell>
        <mxCell id="p9AXQlaozVL-q54wyYoi-201" value="&lt;b&gt;Multi container POD&lt;/b&gt;" style="text;html=1;align=center;verticalAlign=middle;resizable=0;points=[];autosize=1;" parent="1" vertex="1">
          <mxGeometry x="-288" y="370" width="130" height="20" as="geometry" />
        </mxCell>
        <mxCell id="p9AXQlaozVL-q54wyYoi-202" value="&lt;br&gt;&lt;br&gt;&lt;br&gt;&lt;br&gt;&lt;br&gt;&lt;br&gt;&lt;br&gt;" style="text;html=1;align=center;verticalAlign=middle;resizable=0;points=[];autosize=1;" parent="1" vertex="1">
          <mxGeometry x="187" y="372" width="20" height="100" as="geometry" />
        </mxCell>
        <mxCell id="p9AXQlaozVL-q54wyYoi-203" value="" style="rounded=0;whiteSpace=wrap;html=1;strokeWidth=2;fillColor=none;" parent="1" vertex="1">
          <mxGeometry x="195" y="1080" width="315" height="60" as="geometry" />
        </mxCell>
        <mxCell id="p9AXQlaozVL-q54wyYoi-204" value="" style="rounded=0;whiteSpace=wrap;html=1;strokeWidth=2;fillColor=none;" parent="1" vertex="1">
          <mxGeometry x="190" y="880" width="225" height="60" as="geometry" />
        </mxCell>
        <mxCell id="p9AXQlaozVL-q54wyYoi-205" value="" style="rounded=0;whiteSpace=wrap;html=1;strokeWidth=2;fillColor=none;" parent="1" vertex="1">
          <mxGeometry x="205" y="1000" width="110" height="80" as="geometry" />
        </mxCell>
        <mxCell id="p9AXQlaozVL-q54wyYoi-206" value="" style="rounded=0;whiteSpace=wrap;html=1;strokeWidth=2;fillColor=none;" parent="1" vertex="1">
          <mxGeometry x="205" y="800" width="100" height="80" as="geometry" />
        </mxCell>
        <mxCell id="p9AXQlaozVL-q54wyYoi-207" value="C1" style="rounded=0;whiteSpace=wrap;html=1;strokeWidth=2;fillColor=none;" parent="1" vertex="1">
          <mxGeometry x="231.25" y="1030" width="57.5" height="50" as="geometry" />
        </mxCell>
        <mxCell id="p9AXQlaozVL-q54wyYoi-208" value="C1" style="rounded=0;whiteSpace=wrap;html=1;strokeWidth=2;fillColor=none;" parent="1" vertex="1">
          <mxGeometry x="226.25" y="830" width="58.75" height="50" as="geometry" />
        </mxCell>
        <mxCell id="p9AXQlaozVL-q54wyYoi-209" value="" style="endArrow=classic;startArrow=classic;html=1;entryX=0;entryY=0.5;entryDx=0;entryDy=0;" parent="1" edge="1">
          <mxGeometry width="50" height="50" relative="1" as="geometry">
            <mxPoint x="235" y="1050" as="sourcePoint" />
            <mxPoint x="227.25" y="855" as="targetPoint" />
            <Array as="points">
              <mxPoint x="146" y="1050" />
              <mxPoint x="146" y="855" />
            </Array>
          </mxGeometry>
        </mxCell>
        <mxCell id="p9AXQlaozVL-q54wyYoi-210" value="&lt;span&gt;&lt;b&gt;podip;pod-port&lt;/b&gt;&lt;/span&gt;" style="edgeLabel;html=1;align=center;verticalAlign=middle;resizable=0;points=[];fontStyle=0" parent="p9AXQlaozVL-q54wyYoi-209" vertex="1" connectable="0">
          <mxGeometry x="-0.1435" relative="1" as="geometry">
            <mxPoint y="-13" as="offset" />
          </mxGeometry>
        </mxCell>
        <mxCell id="p9AXQlaozVL-q54wyYoi-211" value="POD 1" style="text;html=1;align=center;verticalAlign=middle;resizable=0;points=[];autosize=1;" parent="1" vertex="1">
          <mxGeometry x="215" y="780" width="50" height="20" as="geometry" />
        </mxCell>
        <mxCell id="p9AXQlaozVL-q54wyYoi-212" value="POD&amp;nbsp;2" style="text;html=1;align=center;verticalAlign=middle;resizable=0;points=[];autosize=1;" parent="1" vertex="1">
          <mxGeometry x="230" y="978" width="50" height="20" as="geometry" />
        </mxCell>
        <mxCell id="p9AXQlaozVL-q54wyYoi-213" value="&lt;b&gt;&lt;i&gt;Labels = javaapp&lt;/i&gt;&lt;/b&gt;" style="text;html=1;strokeColor=none;fillColor=none;align=center;verticalAlign=middle;whiteSpace=wrap;rounded=0;" parent="1" vertex="1">
          <mxGeometry x="256.53" y="1003" width="118.98" height="20" as="geometry" />
        </mxCell>
        <mxCell id="p9AXQlaozVL-q54wyYoi-214" value="&lt;b&gt;&lt;i&gt;Labels = webapp&lt;/i&gt;&lt;/b&gt;" style="text;html=1;align=center;verticalAlign=middle;resizable=0;points=[];autosize=1;" parent="1" vertex="1">
          <mxGeometry x="246.01999999999998" y="800" width="110" height="20" as="geometry" />
        </mxCell>
        <mxCell id="p9AXQlaozVL-q54wyYoi-215" value="&lt;b&gt;Service Name (or)&lt;br&gt;Service IPaddr:service-portnum&lt;/b&gt;" style="text;html=1;align=center;verticalAlign=middle;resizable=0;points=[];autosize=1;" parent="1" vertex="1">
          <mxGeometry x="-295" y="927.75" width="200" height="30" as="geometry" />
        </mxCell>
        <mxCell id="p9AXQlaozVL-q54wyYoi-216" value="&lt;b&gt;&lt;i&gt;Selector=webapp&lt;/i&gt;&lt;/b&gt;" style="text;html=1;align=center;verticalAlign=middle;resizable=0;points=[];autosize=1;" parent="1" vertex="1">
          <mxGeometry x="15.000000000000007" y="927.75" width="110" height="20" as="geometry" />
        </mxCell>
        <mxCell id="p9AXQlaozVL-q54wyYoi-217" value="" style="rounded=1;whiteSpace=wrap;html=1;absoluteArcSize=1;arcSize=14;strokeWidth=2;fillColor=none;" parent="1" vertex="1">
          <mxGeometry x="-95" y="870" width="115" height="145.5" as="geometry" />
        </mxCell>
        <mxCell id="p9AXQlaozVL-q54wyYoi-218" value="&lt;b&gt;ClusterIP&lt;/b&gt;" style="rounded=1;whiteSpace=wrap;html=1;strokeWidth=2;fillColor=none;" parent="1" vertex="1">
          <mxGeometry x="-92.5" y="884.5" width="110" height="30" as="geometry" />
        </mxCell>
        <mxCell id="p9AXQlaozVL-q54wyYoi-219" value="&lt;b&gt;NodePort&lt;/b&gt;" style="rounded=1;whiteSpace=wrap;html=1;strokeWidth=2;fillColor=none;" parent="1" vertex="1">
          <mxGeometry x="-92.5" y="927.75" width="110" height="30" as="geometry" />
        </mxCell>
        <mxCell id="p9AXQlaozVL-q54wyYoi-220" value="&lt;b&gt;LoadBalencer&lt;/b&gt;" style="rounded=1;whiteSpace=wrap;html=1;strokeWidth=2;fillColor=none;" parent="1" vertex="1">
          <mxGeometry x="-95" y="973" width="112.5" height="30" as="geometry" />
        </mxCell>
        <mxCell id="p9AXQlaozVL-q54wyYoi-221" value="" style="endArrow=classic;html=1;entryX=0;entryY=0.5;entryDx=0;entryDy=0;exitX=1.026;exitY=0.165;exitDx=0;exitDy=0;exitPerimeter=0;" parent="1" source="p9AXQlaozVL-q54wyYoi-217" target="p9AXQlaozVL-q54wyYoi-206" edge="1">
          <mxGeometry width="50" height="50" relative="1" as="geometry">
            <mxPoint x="145" y="970" as="sourcePoint" />
            <mxPoint x="195" y="920" as="targetPoint" />
            <Array as="points">
              <mxPoint x="105" y="894" />
              <mxPoint x="105" y="840" />
            </Array>
          </mxGeometry>
        </mxCell>
        <mxCell id="p9AXQlaozVL-q54wyYoi-222" value="" style="endArrow=none;dashed=1;html=1;" parent="1" edge="1">
          <mxGeometry width="50" height="50" relative="1" as="geometry">
            <mxPoint x="-135" y="890" as="sourcePoint" />
            <mxPoint x="345" y="760" as="targetPoint" />
            <Array as="points">
              <mxPoint x="-135" y="760" />
            </Array>
          </mxGeometry>
        </mxCell>
        <mxCell id="p9AXQlaozVL-q54wyYoi-223" value="" style="endArrow=none;dashed=1;html=1;" parent="1" edge="1">
          <mxGeometry width="50" height="50" relative="1" as="geometry">
            <mxPoint x="345" y="1170" as="sourcePoint" />
            <mxPoint x="345" y="760" as="targetPoint" />
          </mxGeometry>
        </mxCell>
        <mxCell id="p9AXQlaozVL-q54wyYoi-224" value="" style="endArrow=none;dashed=1;html=1;" parent="1" edge="1">
          <mxGeometry width="50" height="50" relative="1" as="geometry">
            <mxPoint x="-135" y="1170" as="sourcePoint" />
            <mxPoint x="345" y="1170" as="targetPoint" />
          </mxGeometry>
        </mxCell>
        <mxCell id="p9AXQlaozVL-q54wyYoi-225" value="" style="endArrow=none;dashed=1;html=1;" parent="1" edge="1">
          <mxGeometry width="50" height="50" relative="1" as="geometry">
            <mxPoint x="-135" y="1170" as="sourcePoint" />
            <mxPoint x="-135" y="890" as="targetPoint" />
          </mxGeometry>
        </mxCell>
        <mxCell id="p9AXQlaozVL-q54wyYoi-226" value="&lt;b&gt;ClusterIp is used for Internal Communication /&lt;/b&gt;" style="text;html=1;align=center;verticalAlign=middle;resizable=0;points=[];autosize=1;" parent="1" vertex="1">
          <mxGeometry x="-140" y="780" width="280" height="20" as="geometry" />
        </mxCell>
        <mxCell id="p9AXQlaozVL-q54wyYoi-227" value="&lt;b&gt;Within the Cluster&lt;/b&gt;" style="text;html=1;align=center;verticalAlign=middle;resizable=0;points=[];autosize=1;" parent="1" vertex="1">
          <mxGeometry x="-105" y="810" width="120" height="20" as="geometry" />
        </mxCell>
        <mxCell id="p9AXQlaozVL-q54wyYoi-228" value="C1" style="rounded=0;whiteSpace=wrap;html=1;strokeWidth=2;fillColor=none;" parent="1" vertex="1">
          <mxGeometry x="425" y="1030" width="57.5" height="50" as="geometry" />
        </mxCell>
        <mxCell id="p9AXQlaozVL-q54wyYoi-229" value="" style="rounded=0;whiteSpace=wrap;html=1;strokeWidth=2;fillColor=none;" parent="1" vertex="1">
          <mxGeometry x="395" y="1000" width="110" height="80" as="geometry" />
        </mxCell>
        <mxCell id="p9AXQlaozVL-q54wyYoi-230" value="&lt;span style=&quot;color: rgb(0 , 0 , 0) ; font-family: &amp;#34;helvetica&amp;#34; ; font-size: 12px ; font-style: normal ; font-weight: 400 ; letter-spacing: normal ; text-align: center ; text-indent: 0px ; text-transform: none ; word-spacing: 0px ; background-color: rgb(255 , 255 , 255) ; display: inline ; float: none&quot;&gt;POD 3&lt;/span&gt;" style="text;whiteSpace=wrap;html=1;" parent="1" vertex="1">
          <mxGeometry x="415" y="973" width="60" height="30" as="geometry" />
        </mxCell>
        <mxCell id="p9AXQlaozVL-q54wyYoi-231" value="&lt;b style=&quot;color: rgb(0, 0, 0); font-family: helvetica; font-size: 12px; font-style: normal; letter-spacing: normal; text-align: center; text-indent: 0px; text-transform: none; word-spacing: 0px; background-color: rgb(255, 255, 255);&quot;&gt;&lt;i&gt;Labels = webapp&lt;/i&gt;&lt;/b&gt;" style="text;whiteSpace=wrap;html=1;" parent="1" vertex="1">
          <mxGeometry x="439.06" y="1000" width="120" height="30" as="geometry" />
        </mxCell>
        <mxCell id="p9AXQlaozVL-q54wyYoi-232" value="&lt;span style=&quot;color: rgb(0 , 0 , 0) ; font-family: &amp;#34;helvetica&amp;#34; ; font-size: 12px ; font-style: normal ; letter-spacing: normal ; text-align: center ; text-indent: 0px ; text-transform: none ; word-spacing: 0px ; background-color: rgb(255 , 255 , 255) ; display: inline ; float: none&quot;&gt;&lt;b&gt;TargetPort:8080&lt;/b&gt;&lt;/span&gt;" style="text;whiteSpace=wrap;html=1;" parent="1" vertex="1">
          <mxGeometry x="210" y="860" width="110" height="30" as="geometry" />
        </mxCell>
        <mxCell id="p9AXQlaozVL-q54wyYoi-233" value="&lt;span style=&quot;color: rgb(0 , 0 , 0) ; font-family: &amp;#34;helvetica&amp;#34; ; font-size: 12px ; font-style: normal ; letter-spacing: normal ; text-align: center ; text-indent: 0px ; text-transform: none ; word-spacing: 0px ; background-color: rgb(255 , 255 , 255) ; display: inline ; float: none&quot;&gt;&lt;b&gt;TargetPort:8080&lt;/b&gt;&lt;/span&gt;" style="text;whiteSpace=wrap;html=1;" parent="1" vertex="1">
          <mxGeometry x="215" y="1060" width="110" height="30" as="geometry" />
        </mxCell>
        <mxCell id="p9AXQlaozVL-q54wyYoi-234" value="&lt;b&gt;NodePort=30001&lt;/b&gt;" style="text;html=1;align=center;verticalAlign=middle;resizable=0;points=[];autosize=1;" parent="1" vertex="1">
          <mxGeometry x="100" y="800" width="110" height="20" as="geometry" />
        </mxCell>
        <mxCell id="p9AXQlaozVL-q54wyYoi-235" value="&lt;b&gt;NodePort=30002&lt;/b&gt;" style="text;html=1;align=center;verticalAlign=middle;resizable=0;points=[];autosize=1;" parent="1" vertex="1">
          <mxGeometry x="100" y="1000" width="110" height="20" as="geometry" />
        </mxCell>
        <mxCell id="p9AXQlaozVL-q54wyYoi-236" value="&lt;b&gt;Port&lt;br&gt;NodePort&lt;br&gt;TargetPort&lt;/b&gt;" style="text;html=1;align=center;verticalAlign=middle;resizable=0;points=[];autosize=1;" parent="1" vertex="1">
          <mxGeometry x="15.000000000000007" y="947.75" width="80" height="50" as="geometry" />
        </mxCell>
        <mxCell id="p9AXQlaozVL-q54wyYoi-237" value="&lt;b style=&quot;color: rgb(0 , 0 , 0) ; font-family: &amp;#34;helvetica&amp;#34; ; font-size: 12px ; font-style: normal ; letter-spacing: normal ; text-align: center ; text-indent: 0px ; text-transform: none ; word-spacing: 0px ; background-color: rgb(255 , 255 , 255)&quot;&gt;&amp;nbsp; &amp;nbsp; &amp;nbsp; &amp;nbsp; &amp;nbsp; &amp;nbsp;Service Name (or)&lt;br&gt;Service IPaddr:service-portnum&lt;/b&gt;" style="text;whiteSpace=wrap;html=1;" parent="1" vertex="1">
          <mxGeometry x="-28.75" y="1030" width="260" height="40" as="geometry" />
        </mxCell>
        <mxCell id="p9AXQlaozVL-q54wyYoi-238" value="" style="endArrow=classic;html=1;entryX=1;entryY=0.25;entryDx=0;entryDy=0;exitX=0;exitY=0.75;exitDx=0;exitDy=0;" parent="1" edge="1">
          <mxGeometry width="50" height="50" relative="1" as="geometry">
            <mxPoint x="205" y="1060" as="sourcePoint" />
            <mxPoint x="20" y="906.375" as="targetPoint" />
            <Array as="points">
              <mxPoint x="85" y="1060" />
              <mxPoint x="85" y="906" />
            </Array>
          </mxGeometry>
        </mxCell>
        <mxCell id="p9AXQlaozVL-q54wyYoi-239" value="" style="fontColor=#0066CC;verticalAlign=top;verticalLabelPosition=bottom;labelPosition=center;align=center;html=1;outlineConnect=0;fillColor=#CCCCCC;strokeColor=#6881B3;gradientColor=none;gradientDirection=north;strokeWidth=2;shape=mxgraph.networks.terminal;" parent="1" vertex="1">
          <mxGeometry x="-485" y="810" width="120" height="90" as="geometry" />
        </mxCell>
        <mxCell id="p9AXQlaozVL-q54wyYoi-240" value="" style="endArrow=classic;html=1;exitX=0.917;exitY=0.333;exitDx=0;exitDy=0;exitPerimeter=0;fillColor=#d80073;strokeColor=#A50040;" parent="1" source="p9AXQlaozVL-q54wyYoi-239" edge="1">
          <mxGeometry width="50" height="50" relative="1" as="geometry">
            <mxPoint x="-365" y="845" as="sourcePoint" />
            <mxPoint x="441" y="1140" as="targetPoint" />
            <Array as="points">
              <mxPoint x="-295" y="840" />
              <mxPoint x="-295" y="1200" />
              <mxPoint x="445" y="1200" />
            </Array>
          </mxGeometry>
        </mxCell>
        <mxCell id="p9AXQlaozVL-q54wyYoi-241" value="Text" style="edgeLabel;html=1;align=center;verticalAlign=middle;resizable=0;points=[];" parent="p9AXQlaozVL-q54wyYoi-240" vertex="1" connectable="0">
          <mxGeometry x="0.6692" y="-2" relative="1" as="geometry">
            <mxPoint as="offset" />
          </mxGeometry>
        </mxCell>
        <mxCell id="p9AXQlaozVL-q54wyYoi-242" value="&lt;b&gt;KubeProxy&lt;/b&gt;" style="rounded=1;whiteSpace=wrap;html=1;strokeWidth=2;fillColor=none;" parent="1" vertex="1">
          <mxGeometry x="395" y="1085" width="110" height="50" as="geometry" />
        </mxCell>
        <mxCell id="p9AXQlaozVL-q54wyYoi-243" value="" style="endArrow=classic;html=1;entryX=0.038;entryY=-0.035;entryDx=0;entryDy=0;entryPerimeter=0;fillColor=#e51400;strokeColor=#B30000;exitX=0;exitY=0.25;exitDx=0;exitDy=0;" parent="1" source="p9AXQlaozVL-q54wyYoi-242" target="p9AXQlaozVL-q54wyYoi-236" edge="1">
          <mxGeometry width="50" height="50" relative="1" as="geometry">
            <mxPoint x="392" y="1060" as="sourcePoint" />
            <mxPoint x="355" y="970" as="targetPoint" />
            <Array as="points">
              <mxPoint x="365" y="1060" />
              <mxPoint x="365" y="946" />
            </Array>
          </mxGeometry>
        </mxCell>
        <mxCell id="p9AXQlaozVL-q54wyYoi-244" value="" style="endArrow=classic;html=1;strokeColor=#B30000;entryX=0.009;entryY=0.85;entryDx=0;entryDy=0;entryPerimeter=0;" parent="1" target="p9AXQlaozVL-q54wyYoi-234" edge="1">
          <mxGeometry width="50" height="50" relative="1" as="geometry">
            <mxPoint x="17.5" y="934.5" as="sourcePoint" />
            <mxPoint x="67.5" y="884.5" as="targetPoint" />
          </mxGeometry>
        </mxCell>
        <mxCell id="p9AXQlaozVL-q54wyYoi-245" value="" style="endArrow=classic;html=1;strokeColor=#B30000;" parent="1" target="p9AXQlaozVL-q54wyYoi-232" edge="1">
          <mxGeometry width="50" height="50" relative="1" as="geometry">
            <mxPoint x="196.01999999999998" y="815" as="sourcePoint" />
            <mxPoint x="246.01999999999998" y="765" as="targetPoint" />
            <Array as="points">
              <mxPoint x="215" y="830" />
            </Array>
          </mxGeometry>
        </mxCell>
        <mxCell id="p9AXQlaozVL-q54wyYoi-246" value="&lt;b&gt;NodeIp:NodePort&lt;/b&gt;" style="text;html=1;align=center;verticalAlign=middle;resizable=0;points=[];autosize=1;" parent="1" vertex="1">
          <mxGeometry x="-353" y="822" width="110" height="20" as="geometry" />
        </mxCell>
        <mxCell id="p9AXQlaozVL-q54wyYoi-247" value="&lt;h1&gt;Replication Controller&amp;nbsp;&lt;/h1&gt;" style="text;html=1;strokeColor=none;fillColor=none;spacing=5;spacingTop=-20;whiteSpace=wrap;overflow=hidden;rounded=0;" parent="1" vertex="1">
          <mxGeometry x="-360" y="1280" width="310" height="40" as="geometry" />
        </mxCell>
        <mxCell id="p9AXQlaozVL-q54wyYoi-248" value="&lt;b&gt;Docker&amp;nbsp;&lt;/b&gt;" style="rounded=0;whiteSpace=wrap;html=1;" parent="1" vertex="1">
          <mxGeometry x="-238" y="1550" width="230" height="60" as="geometry" />
        </mxCell>
        <mxCell id="p9AXQlaozVL-q54wyYoi-249" value="" style="rounded=0;whiteSpace=wrap;html=1;" parent="1" vertex="1">
          <mxGeometry x="201.52999999999997" y="1390" width="230" height="60" as="geometry" />
        </mxCell>
        <mxCell id="p9AXQlaozVL-q54wyYoi-250" value="" style="rounded=0;whiteSpace=wrap;html=1;" parent="1" vertex="1">
          <mxGeometry x="201.52999999999997" y="1590" width="230" height="60" as="geometry" />
        </mxCell>
        <mxCell id="p9AXQlaozVL-q54wyYoi-251" value="&lt;b&gt;ETCD&lt;/b&gt;" style="rounded=1;whiteSpace=wrap;html=1;" parent="1" vertex="1">
          <mxGeometry x="-238" y="1520" width="228" height="30" as="geometry" />
        </mxCell>
        <mxCell id="p9AXQlaozVL-q54wyYoi-252" value="&lt;b&gt;Scheduler&lt;/b&gt;" style="rounded=1;whiteSpace=wrap;html=1;" parent="1" vertex="1">
          <mxGeometry x="-238" y="1490" width="228" height="30" as="geometry" />
        </mxCell>
        <mxCell id="p9AXQlaozVL-q54wyYoi-253" value="&lt;b&gt;Controller Manager&lt;/b&gt;" style="rounded=1;whiteSpace=wrap;html=1;" parent="1" vertex="1">
          <mxGeometry x="-237" y="1460" width="228" height="30" as="geometry" />
        </mxCell>
        <mxCell id="p9AXQlaozVL-q54wyYoi-254" value="&lt;b&gt;API Server&lt;/b&gt;" style="rounded=1;whiteSpace=wrap;html=1;" parent="1" vertex="1">
          <mxGeometry x="-236" y="1430" width="228" height="30" as="geometry" />
        </mxCell>
        <mxCell id="p9AXQlaozVL-q54wyYoi-255" value="&lt;b&gt;Master server&lt;/b&gt;" style="text;html=1;align=center;verticalAlign=middle;resizable=0;points=[];autosize=1;" parent="1" vertex="1">
          <mxGeometry x="-190" y="1610" width="90" height="32" as="geometry" />
        </mxCell>
        <mxCell id="p9AXQlaozVL-q54wyYoi-256" value="Text" style="text;html=1;align=center;verticalAlign=middle;resizable=0;points=[];autosize=1;" parent="p9AXQlaozVL-q54wyYoi-255" vertex="1">
          <mxGeometry x="45" y="12" width="40" height="20" as="geometry" />
        </mxCell>
        <mxCell id="p9AXQlaozVL-q54wyYoi-257" value="" style="rounded=1;whiteSpace=wrap;html=1;" parent="1" vertex="1">
          <mxGeometry x="205" y="1520" width="75" height="70" as="geometry" />
        </mxCell>
        <mxCell id="p9AXQlaozVL-q54wyYoi-258" value="" style="rounded=1;whiteSpace=wrap;html=1;" parent="1" vertex="1">
          <mxGeometry x="205" y="1320" width="75" height="70" as="geometry" />
        </mxCell>
        <mxCell id="p9AXQlaozVL-q54wyYoi-259" value="Kubelet" style="rounded=1;whiteSpace=wrap;html=1;" parent="1" vertex="1">
          <mxGeometry x="210" y="1400" width="80" height="40" as="geometry" />
        </mxCell>
        <mxCell id="p9AXQlaozVL-q54wyYoi-260" value="Kube-Proxy" style="rounded=1;whiteSpace=wrap;html=1;" parent="1" vertex="1">
          <mxGeometry x="338.98" y="1400" width="80" height="40" as="geometry" />
        </mxCell>
        <mxCell id="p9AXQlaozVL-q54wyYoi-261" value="" style="rounded=1;whiteSpace=wrap;html=1;" parent="1" vertex="1">
          <mxGeometry x="340" y="1600" width="80" height="40" as="geometry" />
        </mxCell>
        <mxCell id="p9AXQlaozVL-q54wyYoi-262" value="" style="rounded=1;whiteSpace=wrap;html=1;" parent="1" vertex="1">
          <mxGeometry x="210.00000000000003" y="1600" width="80" height="40" as="geometry" />
        </mxCell>
        <mxCell id="p9AXQlaozVL-q54wyYoi-263" value="&lt;span style=&quot;color: rgb(0, 0, 0); font-family: helvetica; font-size: 12px; font-style: normal; font-weight: 400; letter-spacing: normal; text-align: center; text-indent: 0px; text-transform: none; word-spacing: 0px; background-color: rgb(255, 255, 255); display: inline; float: none;&quot;&gt;Kubelet&lt;/span&gt;" style="text;whiteSpace=wrap;html=1;" parent="1" vertex="1">
          <mxGeometry x="230" y="1605" width="70" height="30" as="geometry" />
        </mxCell>
        <mxCell id="p9AXQlaozVL-q54wyYoi-264" value="&lt;span style=&quot;color: rgb(0, 0, 0); font-family: helvetica; font-size: 12px; font-style: normal; font-weight: 400; letter-spacing: normal; text-align: center; text-indent: 0px; text-transform: none; word-spacing: 0px; background-color: rgb(255, 255, 255); display: inline; float: none;&quot;&gt;Kube-Proxy&lt;/span&gt;" style="text;whiteSpace=wrap;html=1;" parent="1" vertex="1">
          <mxGeometry x="350" y="1605" width="90" height="30" as="geometry" />
        </mxCell>
        <mxCell id="p9AXQlaozVL-q54wyYoi-265" value="" style="endArrow=none;dashed=1;html=1;" parent="1" edge="1">
          <mxGeometry width="50" height="50" relative="1" as="geometry">
            <mxPoint x="160" y="1651" as="sourcePoint" />
            <mxPoint x="160" y="1310" as="targetPoint" />
          </mxGeometry>
        </mxCell>
        <mxCell id="p9AXQlaozVL-q54wyYoi-266" value="" style="endArrow=none;dashed=1;html=1;" parent="1" edge="1">
          <mxGeometry width="50" height="50" relative="1" as="geometry">
            <mxPoint x="161" y="1310" as="sourcePoint" />
            <mxPoint x="320" y="1310" as="targetPoint" />
          </mxGeometry>
        </mxCell>
        <mxCell id="p9AXQlaozVL-q54wyYoi-267" value="" style="endArrow=none;dashed=1;html=1;" parent="1" edge="1">
          <mxGeometry width="50" height="50" relative="1" as="geometry">
            <mxPoint x="321" y="1693" as="sourcePoint" />
            <mxPoint x="321" y="1310" as="targetPoint" />
          </mxGeometry>
        </mxCell>
        <mxCell id="p9AXQlaozVL-q54wyYoi-268" value="" style="endArrow=none;dashed=1;html=1;" parent="1" edge="1">
          <mxGeometry width="50" height="50" relative="1" as="geometry">
            <mxPoint x="161" y="1690" as="sourcePoint" />
            <mxPoint x="321" y="1690" as="targetPoint" />
          </mxGeometry>
        </mxCell>
        <mxCell id="p9AXQlaozVL-q54wyYoi-269" value="" style="endArrow=none;dashed=1;html=1;" parent="1" edge="1">
          <mxGeometry width="50" height="50" relative="1" as="geometry">
            <mxPoint x="160" y="1690" as="sourcePoint" />
            <mxPoint x="160" y="1650" as="targetPoint" />
          </mxGeometry>
        </mxCell>
        <mxCell id="p9AXQlaozVL-q54wyYoi-270" value="&lt;h3&gt;&lt;b&gt;&lt;i&gt;Relication Contoller&lt;/i&gt;&lt;/b&gt;&lt;/h3&gt;" style="text;html=1;strokeColor=none;fillColor=none;align=center;verticalAlign=middle;whiteSpace=wrap;rounded=0;" parent="1" vertex="1">
          <mxGeometry x="-110" y="1350" width="160" height="20" as="geometry" />
        </mxCell>
        <mxCell id="p9AXQlaozVL-q54wyYoi-271" value="" style="endArrow=classic;html=1;" parent="1" edge="1">
          <mxGeometry width="50" height="50" relative="1" as="geometry">
            <mxPoint x="56.25" y="1360" as="sourcePoint" />
            <mxPoint x="146.25" y="1359.5" as="targetPoint" />
            <Array as="points">
              <mxPoint x="96.25" y="1359.5" />
            </Array>
          </mxGeometry>
        </mxCell>
        <mxCell id="p9AXQlaozVL-q54wyYoi-272" value="" style="endArrow=none;html=1;" parent="1" edge="1">
          <mxGeometry width="50" height="50" relative="1" as="geometry">
            <mxPoint x="195" y="1595" as="sourcePoint" />
            <mxPoint x="285" y="1515" as="targetPoint" />
            <Array as="points" />
          </mxGeometry>
        </mxCell>
        <mxCell id="p9AXQlaozVL-q54wyYoi-273" value="" style="endArrow=none;html=1;" parent="1" edge="1">
          <mxGeometry width="50" height="50" relative="1" as="geometry">
            <mxPoint x="275" y="1590" as="sourcePoint" />
            <mxPoint x="205" y="1520" as="targetPoint" />
          </mxGeometry>
        </mxCell>
        <mxCell id="p9AXQlaozVL-q54wyYoi-274" value="" style="rounded=1;whiteSpace=wrap;html=1;" parent="1" vertex="1">
          <mxGeometry x="360" y="1520" width="65" height="70" as="geometry" />
        </mxCell>
        <mxCell id="p9AXQlaozVL-q54wyYoi-275" value="POD 2" style="text;html=1;align=center;verticalAlign=middle;resizable=0;points=[];autosize=1;" parent="1" vertex="1">
          <mxGeometry x="228" y="1495" width="50" height="20" as="geometry" />
        </mxCell>
        <mxCell id="p9AXQlaozVL-q54wyYoi-276" value="&lt;span style=&quot;color: rgb(0, 0, 0); font-family: helvetica; font-size: 12px; font-style: normal; font-weight: 400; letter-spacing: normal; text-align: center; text-indent: 0px; text-transform: none; word-spacing: 0px; background-color: rgb(255, 255, 255); display: inline; float: none;&quot;&gt;POD 2&lt;/span&gt;" style="text;whiteSpace=wrap;html=1;" parent="1" vertex="1">
          <mxGeometry x="370" y="1495" width="60" height="30" as="geometry" />
        </mxCell>
        <mxCell id="p9AXQlaozVL-q54wyYoi-277" value="POD 1" style="text;html=1;align=center;verticalAlign=middle;resizable=0;points=[];autosize=1;" parent="1" vertex="1">
          <mxGeometry x="220" y="1290" width="50" height="20" as="geometry" />
        </mxCell>
        <mxCell id="p9AXQlaozVL-q54wyYoi-278" value="&lt;div style=&quot;text-align: left&quot;&gt;&lt;b&gt;&lt;i&gt;Selector&lt;/i&gt;&lt;/b&gt;:&lt;/div&gt;&lt;b&gt;&lt;i&gt;&amp;nbsp; &amp;nbsp; &amp;nbsp;app: web-app&lt;/i&gt;&lt;/b&gt;" style="rounded=1;whiteSpace=wrap;html=1;" parent="1" vertex="1">
          <mxGeometry x="-82.5" y="1370" width="125" height="40" as="geometry" />
        </mxCell>
        <mxCell id="p9AXQlaozVL-q54wyYoi-279" value="&lt;i&gt;&lt;b&gt;Labels: web-app&lt;/b&gt;&lt;/i&gt;" style="text;html=1;align=center;verticalAlign=middle;resizable=0;points=[];autosize=1;" parent="1" vertex="1">
          <mxGeometry x="91.53" y="1330" width="110" height="20" as="geometry" />
        </mxCell>
        <mxCell id="p9AXQlaozVL-q54wyYoi-280" value="&lt;i style=&quot;font-family: &amp;#34;helvetica&amp;#34; ; text-align: center&quot;&gt;&lt;b&gt;Labels: web-app&lt;/b&gt;&lt;/i&gt;" style="text;whiteSpace=wrap;html=1;" parent="1" vertex="1">
          <mxGeometry x="100" y="1550" width="120" height="30" as="geometry" />
        </mxCell>
        <mxCell id="p9AXQlaozVL-q54wyYoi-281" value="" style="endArrow=classic;startArrow=classic;html=1;entryX=0.059;entryY=1;entryDx=0;entryDy=0;entryPerimeter=0;exitX=1;exitY=0.5;exitDx=0;exitDy=0;" parent="1" source="p9AXQlaozVL-q54wyYoi-278" target="p9AXQlaozVL-q54wyYoi-279" edge="1">
          <mxGeometry width="50" height="50" relative="1" as="geometry">
            <mxPoint x="50" y="1380" as="sourcePoint" />
            <mxPoint x="90" y="1290" as="targetPoint" />
          </mxGeometry>
        </mxCell>
        <mxCell id="p9AXQlaozVL-q54wyYoi-282" value="" style="endArrow=classic;startArrow=classic;html=1;entryX=1;entryY=0.75;entryDx=0;entryDy=0;exitX=0.25;exitY=0;exitDx=0;exitDy=0;" parent="1" source="p9AXQlaozVL-q54wyYoi-280" target="p9AXQlaozVL-q54wyYoi-278" edge="1">
          <mxGeometry width="50" height="50" relative="1" as="geometry">
            <mxPoint x="97" y="1560" as="sourcePoint" />
            <mxPoint x="147" y="1510" as="targetPoint" />
          </mxGeometry>
        </mxCell>
        <mxCell id="p9AXQlaozVL-q54wyYoi-283" value="&lt;i style=&quot;color: rgb(0, 0, 0); font-size: 12px; font-weight: 400; letter-spacing: normal; text-indent: 0px; text-transform: none; word-spacing: 0px; font-family: helvetica; text-align: center; background-color: rgb(255, 255, 255);&quot;&gt;&lt;b&gt;Labels: web-app&lt;/b&gt;&lt;/i&gt;" style="text;whiteSpace=wrap;html=1;" parent="1" vertex="1">
          <mxGeometry x="321" y="1530" width="120" height="30" as="geometry" />
        </mxCell>
        <mxCell id="p9AXQlaozVL-q54wyYoi-284" value="&lt;b&gt;&lt;font color=&quot;#f50000&quot;&gt;Pod goes down&lt;/font&gt;&lt;/b&gt;&amp;nbsp;" style="text;html=1;strokeColor=none;fillColor=none;align=center;verticalAlign=middle;whiteSpace=wrap;rounded=0;" parent="1" vertex="1">
          <mxGeometry x="190" y="1545" width="100" height="20" as="geometry" />
        </mxCell>
        <mxCell id="p9AXQlaozVL-q54wyYoi-285" value="" style="endArrow=classic;html=1;entryX=-0.062;entryY=0.6;entryDx=0;entryDy=0;entryPerimeter=0;" parent="1" target="p9AXQlaozVL-q54wyYoi-274" edge="1">
          <mxGeometry width="50" height="50" relative="1" as="geometry">
            <mxPoint x="288.98" y="1560" as="sourcePoint" />
            <mxPoint x="338.98" y="1510" as="targetPoint" />
          </mxGeometry>
        </mxCell>
        <mxCell id="p9AXQlaozVL-q54wyYoi-286" value="&lt;h1&gt;ReplicaSet&lt;/h1&gt;" style="text;html=1;strokeColor=none;fillColor=none;spacing=5;spacingTop=-20;whiteSpace=wrap;overflow=hidden;rounded=0;" parent="1" vertex="1">
          <mxGeometry x="-360" y="1680" width="180" height="40" as="geometry" />
        </mxCell>
        <mxCell id="p9AXQlaozVL-q54wyYoi-287" value="" style="endArrow=classic;html=1;exitX=0.75;exitY=1;exitDx=0;exitDy=0;entryX=1;entryY=0.75;entryDx=0;entryDy=0;" parent="1" source="p9AXQlaozVL-q54wyYoi-278" target="p9AXQlaozVL-q54wyYoi-251" edge="1">
          <mxGeometry width="50" height="50" relative="1" as="geometry">
            <mxPoint x="60" y="1560" as="sourcePoint" />
            <mxPoint x="110" y="1510" as="targetPoint" />
            <Array as="points">
              <mxPoint x="11" y="1543" />
            </Array>
          </mxGeometry>
        </mxCell>
        <mxCell id="p9AXQlaozVL-q54wyYoi-288" value="&lt;b&gt;Docker&amp;nbsp;&lt;/b&gt;" style="rounded=0;whiteSpace=wrap;html=1;" parent="1" vertex="1">
          <mxGeometry x="-324.47" y="2053" width="230" height="60" as="geometry" />
        </mxCell>
        <mxCell id="p9AXQlaozVL-q54wyYoi-289" value="" style="rounded=0;whiteSpace=wrap;html=1;" parent="1" vertex="1">
          <mxGeometry x="209.05999999999997" y="1840" width="230" height="60" as="geometry" />
        </mxCell>
        <mxCell id="p9AXQlaozVL-q54wyYoi-290" value="" style="rounded=0;whiteSpace=wrap;html=1;" parent="1" vertex="1">
          <mxGeometry x="200.58999999999997" y="1993" width="230" height="60" as="geometry" />
        </mxCell>
        <mxCell id="p9AXQlaozVL-q54wyYoi-291" value="&lt;b&gt;ETCD&lt;/b&gt;" style="rounded=1;whiteSpace=wrap;html=1;" parent="1" vertex="1">
          <mxGeometry x="-324.47" y="2023" width="228" height="30" as="geometry" />
        </mxCell>
        <mxCell id="p9AXQlaozVL-q54wyYoi-292" value="&lt;b&gt;Scheduler&lt;/b&gt;" style="rounded=1;whiteSpace=wrap;html=1;" parent="1" vertex="1">
          <mxGeometry x="-324.47" y="1993" width="228" height="30" as="geometry" />
        </mxCell>
        <mxCell id="p9AXQlaozVL-q54wyYoi-293" value="&lt;b&gt;Controller Manager&lt;/b&gt;" style="rounded=1;whiteSpace=wrap;html=1;" parent="1" vertex="1">
          <mxGeometry x="-323.47" y="1963" width="228" height="30" as="geometry" />
        </mxCell>
        <mxCell id="p9AXQlaozVL-q54wyYoi-294" value="&lt;b&gt;API Server&lt;/b&gt;" style="rounded=1;whiteSpace=wrap;html=1;" parent="1" vertex="1">
          <mxGeometry x="-322.47" y="1933" width="228" height="30" as="geometry" />
        </mxCell>
        <mxCell id="p9AXQlaozVL-q54wyYoi-295" value="&lt;b&gt;Master server&lt;/b&gt;" style="text;html=1;align=center;verticalAlign=middle;resizable=0;points=[];autosize=1;" parent="1" vertex="1">
          <mxGeometry x="-276.47" y="2058" width="90" height="32" as="geometry" />
        </mxCell>
        <mxCell id="p9AXQlaozVL-q54wyYoi-296" value="Text" style="text;html=1;align=center;verticalAlign=middle;resizable=0;points=[];autosize=1;" parent="p9AXQlaozVL-q54wyYoi-295" vertex="1">
          <mxGeometry x="45" y="12" width="40" height="20" as="geometry" />
        </mxCell>
        <mxCell id="p9AXQlaozVL-q54wyYoi-297" value="" style="rounded=1;whiteSpace=wrap;html=1;" parent="1" vertex="1">
          <mxGeometry x="204.06" y="1923" width="75" height="70" as="geometry" />
        </mxCell>
        <mxCell id="p9AXQlaozVL-q54wyYoi-298" value="" style="rounded=1;whiteSpace=wrap;html=1;" parent="1" vertex="1">
          <mxGeometry x="212.53" y="1770" width="75" height="70" as="geometry" />
        </mxCell>
        <mxCell id="p9AXQlaozVL-q54wyYoi-299" value="Kubelet" style="rounded=1;whiteSpace=wrap;html=1;" parent="1" vertex="1">
          <mxGeometry x="217.53" y="1850" width="80" height="40" as="geometry" />
        </mxCell>
        <mxCell id="p9AXQlaozVL-q54wyYoi-300" value="Kube-Proxy" style="rounded=1;whiteSpace=wrap;html=1;" parent="1" vertex="1">
          <mxGeometry x="346.51" y="1850" width="80" height="40" as="geometry" />
        </mxCell>
        <mxCell id="p9AXQlaozVL-q54wyYoi-301" value="" style="rounded=1;whiteSpace=wrap;html=1;" parent="1" vertex="1">
          <mxGeometry x="339.05999999999995" y="2003" width="80" height="40" as="geometry" />
        </mxCell>
        <mxCell id="p9AXQlaozVL-q54wyYoi-302" value="" style="rounded=1;whiteSpace=wrap;html=1;" parent="1" vertex="1">
          <mxGeometry x="209.06" y="2003" width="80" height="40" as="geometry" />
        </mxCell>
        <mxCell id="p9AXQlaozVL-q54wyYoi-303" value="&lt;span style=&quot;color: rgb(0, 0, 0); font-family: helvetica; font-size: 12px; font-style: normal; font-weight: 400; letter-spacing: normal; text-align: center; text-indent: 0px; text-transform: none; word-spacing: 0px; background-color: rgb(255, 255, 255); display: inline; float: none;&quot;&gt;Kubelet&lt;/span&gt;" style="text;whiteSpace=wrap;html=1;" parent="1" vertex="1">
          <mxGeometry x="229.06" y="2008" width="66" height="30" as="geometry" />
        </mxCell>
        <mxCell id="p9AXQlaozVL-q54wyYoi-304" value="&lt;span style=&quot;color: rgb(0, 0, 0); font-family: helvetica; font-size: 12px; font-style: normal; font-weight: 400; letter-spacing: normal; text-align: center; text-indent: 0px; text-transform: none; word-spacing: 0px; background-color: rgb(255, 255, 255); display: inline; float: none;&quot;&gt;Kube-Proxy&lt;/span&gt;" style="text;whiteSpace=wrap;html=1;" parent="1" vertex="1">
          <mxGeometry x="345.05999999999995" y="2008" width="94" height="30" as="geometry" />
        </mxCell>
        <mxCell id="p9AXQlaozVL-q54wyYoi-305" value="" style="endArrow=none;dashed=1;html=1;" parent="1" source="p9AXQlaozVL-q54wyYoi-324" edge="1">
          <mxGeometry width="50" height="50" relative="1" as="geometry">
            <mxPoint x="167.53" y="2101" as="sourcePoint" />
            <mxPoint x="167.5300000000002" y="1760" as="targetPoint" />
          </mxGeometry>
        </mxCell>
        <mxCell id="p9AXQlaozVL-q54wyYoi-306" value="" style="endArrow=none;dashed=1;html=1;" parent="1" edge="1">
          <mxGeometry width="50" height="50" relative="1" as="geometry">
            <mxPoint x="168.5300000000002" y="1760" as="sourcePoint" />
            <mxPoint x="327.52999999999975" y="1760" as="targetPoint" />
          </mxGeometry>
        </mxCell>
        <mxCell id="p9AXQlaozVL-q54wyYoi-307" value="" style="endArrow=none;dashed=1;html=1;" parent="1" edge="1">
          <mxGeometry width="50" height="50" relative="1" as="geometry">
            <mxPoint x="328.52999999999975" y="2143" as="sourcePoint" />
            <mxPoint x="328.52999999999975" y="1760" as="targetPoint" />
          </mxGeometry>
        </mxCell>
        <mxCell id="p9AXQlaozVL-q54wyYoi-308" value="" style="endArrow=none;dashed=1;html=1;" parent="1" source="p9AXQlaozVL-q54wyYoi-318" edge="1">
          <mxGeometry width="50" height="50" relative="1" as="geometry">
            <mxPoint x="155" y="2170" as="sourcePoint" />
            <mxPoint x="315" y="2170" as="targetPoint" />
          </mxGeometry>
        </mxCell>
        <mxCell id="p9AXQlaozVL-q54wyYoi-309" value="" style="endArrow=none;dashed=1;html=1;" parent="1" edge="1">
          <mxGeometry width="50" height="50" relative="1" as="geometry">
            <mxPoint x="167.5300000000002" y="2140" as="sourcePoint" />
            <mxPoint x="167.5300000000002" y="2100" as="targetPoint" />
          </mxGeometry>
        </mxCell>
        <mxCell id="p9AXQlaozVL-q54wyYoi-310" value="&lt;h3&gt;&lt;b&gt;&lt;i&gt;RelicationSet&lt;/i&gt;&lt;/b&gt;&lt;/h3&gt;" style="text;html=1;strokeColor=none;fillColor=none;align=center;verticalAlign=middle;whiteSpace=wrap;rounded=0;" parent="1" vertex="1">
          <mxGeometry x="-154.47" y="1790" width="160" height="20" as="geometry" />
        </mxCell>
        <mxCell id="p9AXQlaozVL-q54wyYoi-311" value="&lt;div&gt;&amp;nbsp; &amp;nbsp;matchExpressions:&lt;/div&gt;&lt;div&gt;&amp;nbsp; &amp;nbsp; &amp;nbsp;key: app&lt;/div&gt;&lt;div&gt;&amp;nbsp; &amp;nbsp; &amp;nbsp;operator: in&amp;nbsp;&lt;/div&gt;&lt;div&gt;&amp;nbsp; &amp;nbsp; &amp;nbsp;- webapp&lt;/div&gt;&lt;div&gt;&amp;nbsp; &amp;nbsp; &amp;nbsp; &amp;nbsp;javapp&lt;/div&gt;&lt;div&gt;&amp;nbsp; &amp;nbsp; &amp;nbsp; &amp;nbsp;mavenapp&lt;/div&gt;" style="rounded=1;whiteSpace=wrap;html=1;align=left;" parent="1" vertex="1">
          <mxGeometry x="-124.47" y="1810" width="168" height="100" as="geometry" />
        </mxCell>
        <mxCell id="p9AXQlaozVL-q54wyYoi-313" value="" style="endArrow=classic;startArrow=classic;html=1;exitX=1;exitY=0.25;exitDx=0;exitDy=0;" parent="1" source="p9AXQlaozVL-q54wyYoi-311" target="p9AXQlaozVL-q54wyYoi-324" edge="1">
          <mxGeometry width="50" height="50" relative="1" as="geometry">
            <mxPoint x="57.53" y="1830" as="sourcePoint" />
            <mxPoint x="97.53" y="1740" as="targetPoint" />
          </mxGeometry>
        </mxCell>
        <mxCell id="p9AXQlaozVL-q54wyYoi-314" value="" style="endArrow=classic;startArrow=classic;html=1;entryX=1;entryY=0.5;entryDx=0;entryDy=0;exitX=0.25;exitY=0;exitDx=0;exitDy=0;" parent="1" target="p9AXQlaozVL-q54wyYoi-311" edge="1">
          <mxGeometry width="50" height="50" relative="1" as="geometry">
            <mxPoint x="163.52999999999997" y="1923" as="sourcePoint" />
            <mxPoint x="154.53" y="1960" as="targetPoint" />
          </mxGeometry>
        </mxCell>
        <mxCell id="p9AXQlaozVL-q54wyYoi-315" value="" style="endArrow=classic;html=1;exitX=0.417;exitY=1;exitDx=0;exitDy=0;entryX=1;entryY=0.5;entryDx=0;entryDy=0;exitPerimeter=0;" parent="1" source="p9AXQlaozVL-q54wyYoi-311" target="p9AXQlaozVL-q54wyYoi-291" edge="1">
          <mxGeometry width="50" height="50" relative="1" as="geometry">
            <mxPoint x="67.53" y="2010" as="sourcePoint" />
            <mxPoint x="117.53" y="1960" as="targetPoint" />
            <Array as="points">
              <mxPoint x="-56.47" y="2038" />
            </Array>
          </mxGeometry>
        </mxCell>
        <mxCell id="p9AXQlaozVL-q54wyYoi-316" value="POD 1" style="text;html=1;align=center;verticalAlign=middle;resizable=0;points=[];autosize=1;" parent="1" vertex="1">
          <mxGeometry x="226.03" y="1795" width="50" height="20" as="geometry" />
        </mxCell>
        <mxCell id="p9AXQlaozVL-q54wyYoi-317" value="POD 2" style="text;html=1;align=center;verticalAlign=middle;resizable=0;points=[];autosize=1;" parent="1" vertex="1">
          <mxGeometry x="212.53" y="1948" width="50" height="20" as="geometry" />
        </mxCell>
        <mxCell id="p9AXQlaozVL-q54wyYoi-318" value="" style="rounded=0;whiteSpace=wrap;html=1;" parent="1" vertex="1">
          <mxGeometry x="187.06" y="2140" width="252.94" height="50" as="geometry" />
        </mxCell>
        <mxCell id="p9AXQlaozVL-q54wyYoi-319" value="Kubelet" style="rounded=1;whiteSpace=wrap;html=1;" parent="1" vertex="1">
          <mxGeometry x="200" y="2147.5" width="90" height="35" as="geometry" />
        </mxCell>
        <mxCell id="p9AXQlaozVL-q54wyYoi-320" value="Kube-Proxy" style="rounded=1;whiteSpace=wrap;html=1;" parent="1" vertex="1">
          <mxGeometry x="319.06000000000006" y="2150" width="98" height="32.5" as="geometry" />
        </mxCell>
        <mxCell id="p9AXQlaozVL-q54wyYoi-321" value="" style="endArrow=none;dashed=1;html=1;" parent="1" edge="1">
          <mxGeometry width="50" height="50" relative="1" as="geometry">
            <mxPoint x="328.52999999999975" y="2200" as="sourcePoint" />
            <mxPoint x="328.52999999999975" y="2110" as="targetPoint" />
          </mxGeometry>
        </mxCell>
        <mxCell id="p9AXQlaozVL-q54wyYoi-322" value="" style="endArrow=none;dashed=1;html=1;" parent="1" edge="1">
          <mxGeometry width="50" height="50" relative="1" as="geometry">
            <mxPoint x="163.5300000000002" y="2200" as="sourcePoint" />
            <mxPoint x="324.52999999999975" y="2200" as="targetPoint" />
          </mxGeometry>
        </mxCell>
        <mxCell id="p9AXQlaozVL-q54wyYoi-323" value="" style="endArrow=none;dashed=1;html=1;" parent="1" edge="1">
          <mxGeometry width="50" height="50" relative="1" as="geometry">
            <mxPoint x="167.5300000000002" y="2200" as="sourcePoint" />
            <mxPoint x="167.0300000000002" y="2140" as="targetPoint" />
            <Array as="points">
              <mxPoint x="167.53" y="2170" />
            </Array>
          </mxGeometry>
        </mxCell>
        <mxCell id="p9AXQlaozVL-q54wyYoi-324" value="&lt;i&gt;&lt;b&gt;Labels:&amp;nbsp;&lt;br&gt;&amp;nbsp; &amp;nbsp; &amp;nbsp; &amp;nbsp; &amp;nbsp;app: webapp&lt;br&gt;&amp;nbsp; &amp;nbsp; &amp;nbsp;app:javapp&lt;br&gt;&amp;nbsp; &amp;nbsp; &amp;nbsp; &amp;nbsp; &amp;nbsp; &amp;nbsp;app:mavenapp&lt;br&gt;&lt;/b&gt;&lt;/i&gt;" style="text;html=1;align=center;verticalAlign=middle;resizable=0;points=[];autosize=1;" parent="1" vertex="1">
          <mxGeometry x="98.53" y="1770" width="140" height="60" as="geometry" />
        </mxCell>
        <mxCell id="p9AXQlaozVL-q54wyYoi-325" value="" style="endArrow=none;dashed=1;html=1;" parent="1" target="p9AXQlaozVL-q54wyYoi-324" edge="1">
          <mxGeometry width="50" height="50" relative="1" as="geometry">
            <mxPoint x="167.5300000000002" y="2101" as="sourcePoint" />
            <mxPoint x="167.53" y="1760" as="targetPoint" />
          </mxGeometry>
        </mxCell>
        <mxCell id="p9AXQlaozVL-q54wyYoi-326" value="POD 3" style="rounded=1;whiteSpace=wrap;html=1;" parent="1" vertex="1">
          <mxGeometry x="203.53" y="2070" width="75" height="70" as="geometry" />
        </mxCell>
        <mxCell id="p9AXQlaozVL-q54wyYoi-328" value="" style="endArrow=classic;startArrow=classic;html=1;exitX=0.167;exitY=-0.033;exitDx=0;exitDy=0;exitPerimeter=0;entryX=1;entryY=0.75;entryDx=0;entryDy=0;" parent="1" target="p9AXQlaozVL-q54wyYoi-311" edge="1">
          <mxGeometry width="50" height="50" relative="1" as="geometry">
            <mxPoint x="138.56999999999994" y="2067.01" as="sourcePoint" />
            <mxPoint x="41.53" y="1870" as="targetPoint" />
          </mxGeometry>
        </mxCell>
        <mxCell id="p9AXQlaozVL-q54wyYoi-329" value="" style="rounded=0;whiteSpace=wrap;html=1;" parent="1" vertex="1">
          <mxGeometry x="160" y="2340" width="240" height="60" as="geometry" />
        </mxCell>
        <mxCell id="p9AXQlaozVL-q54wyYoi-330" value="" style="rounded=1;whiteSpace=wrap;html=1;" parent="1" vertex="1">
          <mxGeometry x="190" y="2250" width="130" height="90" as="geometry" />
        </mxCell>
        <mxCell id="p9AXQlaozVL-q54wyYoi-331" value="" style="html=1;dashed=0;whitespace=wrap;fillColor=#2875E2;strokeColor=#ffffff;points=[[0.005,0.63,0],[0.1,0.2,0],[0.9,0.2,0],[0.5,0,0],[0.995,0.63,0],[0.72,0.99,0],[0.5,1,0],[0.28,0.99,0]];shape=mxgraph.kubernetes.icon;prIcon=pod" parent="1" vertex="1">
          <mxGeometry x="200" y="2290" width="50" height="48" as="geometry" />
        </mxCell>
        <mxCell id="p9AXQlaozVL-q54wyYoi-332" value="" style="html=1;dashed=0;whitespace=wrap;fillColor=#2875E2;strokeColor=#ffffff;points=[[0.005,0.63,0],[0.1,0.2,0],[0.9,0.2,0],[0.5,0,0],[0.995,0.63,0],[0.72,0.99,0],[0.5,1,0],[0.28,0.99,0]];shape=mxgraph.kubernetes.icon;prIcon=pod" parent="1" vertex="1">
          <mxGeometry x="257" y="2292" width="50" height="48" as="geometry" />
        </mxCell>
        <mxCell id="p9AXQlaozVL-q54wyYoi-333" value="POD" style="text;html=1;align=center;verticalAlign=middle;resizable=0;points=[];autosize=1;" parent="1" vertex="1">
          <mxGeometry x="230" y="2230" width="40" height="20" as="geometry" />
        </mxCell>
        <mxCell id="p9AXQlaozVL-q54wyYoi-334" value="&lt;font color=&quot;#ff3333&quot;&gt;&lt;b&gt;C1&lt;/b&gt;&lt;/font&gt;" style="text;html=1;align=center;verticalAlign=middle;resizable=0;points=[];autosize=1;" parent="1" vertex="1">
          <mxGeometry x="220" y="2306" width="30" height="20" as="geometry" />
        </mxCell>
        <mxCell id="p9AXQlaozVL-q54wyYoi-335" value="&lt;b&gt;&lt;font color=&quot;#ff470f&quot;&gt;C2&lt;/font&gt;&lt;/b&gt;" style="text;html=1;align=center;verticalAlign=middle;resizable=0;points=[];autosize=1;" parent="1" vertex="1">
          <mxGeometry x="277" y="2306" width="30" height="20" as="geometry" />
        </mxCell>
        <mxCell id="p9AXQlaozVL-q54wyYoi-336" value="8080" style="text;html=1;align=center;verticalAlign=middle;resizable=0;points=[];autosize=1;" parent="1" vertex="1">
          <mxGeometry x="202" y="2270" width="40" height="20" as="geometry" />
        </mxCell>
        <mxCell id="p9AXQlaozVL-q54wyYoi-337" value="9090" style="text;html=1;align=center;verticalAlign=middle;resizable=0;points=[];autosize=1;" parent="1" vertex="1">
          <mxGeometry x="257" y="2272" width="40" height="20" as="geometry" />
        </mxCell>
        <mxCell id="p9AXQlaozVL-q54wyYoi-338" value="&lt;b&gt;podip:con-portnum&lt;br&gt;&lt;/b&gt;" style="text;html=1;align=left;verticalAlign=middle;resizable=0;points=[];autosize=1;" parent="1" vertex="1">
          <mxGeometry x="-180" y="2260" width="130" height="20" as="geometry" />
        </mxCell>
        <mxCell id="p9AXQlaozVL-q54wyYoi-339" value="10.2.55.9" style="text;html=1;align=center;verticalAlign=middle;resizable=0;points=[];autosize=1;" parent="1" vertex="1">
          <mxGeometry x="262" y="2230" width="70" height="20" as="geometry" />
        </mxCell>
        <mxCell id="p9AXQlaozVL-q54wyYoi-340" value="&lt;span style=&quot;color: rgb(0 , 0 , 0) ; font-family: &amp;#34;helvetica&amp;#34; ; font-size: 12px ; font-style: normal ; font-weight: 400 ; letter-spacing: normal ; text-align: center ; text-indent: 0px ; text-transform: none ; word-spacing: 0px ; background-color: rgb(255 , 255 , 255) ; display: inline ; float: none&quot;&gt;10.2.55.9:8080&lt;/span&gt;" style="text;whiteSpace=wrap;html=1;" parent="1" vertex="1">
          <mxGeometry x="-167.99999999999997" y="2290" width="80" height="30" as="geometry" />
        </mxCell>
        <mxCell id="p9AXQlaozVL-q54wyYoi-341" value="&lt;span style=&quot;color: rgb(0 , 0 , 0) ; font-family: &amp;#34;helvetica&amp;#34; ; font-size: 12px ; font-style: normal ; font-weight: 400 ; letter-spacing: normal ; text-align: center ; text-indent: 0px ; text-transform: none ; word-spacing: 0px ; background-color: rgb(255 , 255 , 255) ; display: inline ; float: none&quot;&gt;10.2.55.9:9090&lt;/span&gt;" style="text;whiteSpace=wrap;html=1;" parent="1" vertex="1">
          <mxGeometry x="-168" y="2320" width="265" height="30" as="geometry" />
        </mxCell>
        <mxCell id="p9AXQlaozVL-q54wyYoi-342" style="edgeStyle=orthogonalEdgeStyle;rounded=0;orthogonalLoop=1;jettySize=auto;html=1;exitX=0.5;exitY=1;exitDx=0;exitDy=0;" parent="1" source="p9AXQlaozVL-q54wyYoi-341" target="p9AXQlaozVL-q54wyYoi-341" edge="1">
          <mxGeometry relative="1" as="geometry" />
        </mxCell>
        <mxCell id="p9AXQlaozVL-q54wyYoi-343" value="&lt;b&gt;key: podip&lt;br&gt;value: cont-portnum&lt;/b&gt;" style="text;html=1;align=center;verticalAlign=middle;resizable=0;points=[];autosize=1;" parent="1" vertex="1">
          <mxGeometry x="-350" y="2290" width="130" height="30" as="geometry" />
        </mxCell>
        <mxCell id="p9AXQlaozVL-q54wyYoi-344" value="" style="endArrow=classic;html=1;entryX=0.08;entryY=0.5;entryDx=0;entryDy=0;entryPerimeter=0;" parent="1" target="p9AXQlaozVL-q54wyYoi-331" edge="1">
          <mxGeometry width="50" height="50" relative="1" as="geometry">
            <mxPoint x="-80" y="2300" as="sourcePoint" />
            <mxPoint x="90" y="2280" as="targetPoint" />
            <Array as="points">
              <mxPoint x="170" y="2300" />
              <mxPoint x="170" y="2314" />
            </Array>
          </mxGeometry>
        </mxCell>
        <mxCell id="p9AXQlaozVL-q54wyYoi-345" value="" style="endArrow=classic;html=1;entryX=0.42;entryY=0.854;entryDx=0;entryDy=0;entryPerimeter=0;" parent="1" target="p9AXQlaozVL-q54wyYoi-332" edge="1">
          <mxGeometry width="50" height="50" relative="1" as="geometry">
            <mxPoint x="-70" y="2333" as="sourcePoint" />
            <mxPoint x="-20" y="2290" as="targetPoint" />
          </mxGeometry>
        </mxCell>
        <mxCell id="p9AXQlaozVL-q54wyYoi-346" value="&lt;h1&gt;&lt;b&gt;Service&lt;/b&gt;&lt;/h1&gt;" style="text;html=1;align=center;verticalAlign=middle;resizable=0;points=[];autosize=1;" parent="1" vertex="1">
          <mxGeometry x="-318.25" y="720" width="100" height="50" as="geometry" />
        </mxCell>
        <mxCell id="p9AXQlaozVL-q54wyYoi-534" value="&lt;h1&gt;DaemonSet&lt;/h1&gt;" style="text;html=1;align=center;verticalAlign=middle;resizable=0;points=[];autosize=1;" parent="1" vertex="1">
          <mxGeometry x="-359" y="2435" width="150" height="50" as="geometry" />
        </mxCell>
        <mxCell id="p9AXQlaozVL-q54wyYoi-536" value="WORKER 1" style="rounded=0;whiteSpace=wrap;html=1;" parent="1" vertex="1">
          <mxGeometry x="84" y="2530" width="281.47" height="60" as="geometry" />
        </mxCell>
        <mxCell id="p9AXQlaozVL-q54wyYoi-537" value="WORKER 2" style="rounded=0;whiteSpace=wrap;html=1;" parent="1" vertex="1">
          <mxGeometry x="87.27000000000001" y="2670" width="281.47" height="60" as="geometry" />
        </mxCell>
        <mxCell id="p9AXQlaozVL-q54wyYoi-541" value="POD 1" style="rounded=1;whiteSpace=wrap;html=1;" parent="1" vertex="1">
          <mxGeometry x="94.74" y="2460" width="65.26" height="70" as="geometry" />
        </mxCell>
        <mxCell id="p9AXQlaozVL-q54wyYoi-542" value="POD 1" style="rounded=1;whiteSpace=wrap;html=1;" parent="1" vertex="1">
          <mxGeometry x="98.74" y="2600" width="61.26" height="70" as="geometry" />
        </mxCell>
        <mxCell id="p9AXQlaozVL-q54wyYoi-544" value="" style="endArrow=none;dashed=1;html=1;" parent="1" edge="1">
          <mxGeometry width="50" height="50" relative="1" as="geometry">
            <mxPoint x="39" y="2760" as="sourcePoint" />
            <mxPoint x="38.53" y="2450" as="targetPoint" />
          </mxGeometry>
        </mxCell>
        <mxCell id="p9AXQlaozVL-q54wyYoi-545" value="" style="endArrow=none;dashed=1;html=1;" parent="1" edge="1">
          <mxGeometry width="50" height="50" relative="1" as="geometry">
            <mxPoint x="40.06" y="2450" as="sourcePoint" />
            <mxPoint x="238.53" y="2450" as="targetPoint" />
          </mxGeometry>
        </mxCell>
        <mxCell id="p9AXQlaozVL-q54wyYoi-546" value="" style="endArrow=none;dashed=1;html=1;" parent="1" edge="1">
          <mxGeometry width="50" height="50" relative="1" as="geometry">
            <mxPoint x="239" y="2760" as="sourcePoint" />
            <mxPoint x="238.53" y="2450" as="targetPoint" />
          </mxGeometry>
        </mxCell>
        <mxCell id="p9AXQlaozVL-q54wyYoi-547" value="" style="endArrow=none;dashed=1;html=1;" parent="1" edge="1">
          <mxGeometry width="50" height="50" relative="1" as="geometry">
            <mxPoint x="36" y="2760" as="sourcePoint" />
            <mxPoint x="234.47" y="2760" as="targetPoint" />
          </mxGeometry>
        </mxCell>
        <mxCell id="p9AXQlaozVL-q54wyYoi-548" value="&lt;h3&gt;&lt;b&gt;DaemonSet&lt;/b&gt;&lt;/h3&gt;" style="text;html=1;align=center;verticalAlign=middle;resizable=0;points=[];autosize=1;" parent="1" vertex="1">
          <mxGeometry x="-220" y="2470" width="90" height="50" as="geometry" />
        </mxCell>
        <mxCell id="p9AXQlaozVL-q54wyYoi-549" value="WORKER 3" style="rounded=0;whiteSpace=wrap;html=1;" parent="1" vertex="1">
          <mxGeometry x="78.53" y="2840" width="281.47" height="60" as="geometry" />
        </mxCell>
        <mxCell id="p9AXQlaozVL-q54wyYoi-550" value="POD1" style="rounded=1;whiteSpace=wrap;html=1;" parent="1" vertex="1">
          <mxGeometry x="87.27" y="2770" width="66" height="70" as="geometry" />
        </mxCell>
        <mxCell id="p9AXQlaozVL-q54wyYoi-560" value="&lt;i&gt;&lt;b&gt;matchLabels:&lt;br&gt;&lt;/b&gt;&lt;/i&gt;&lt;b&gt;&lt;i&gt;&amp;nbsp; &amp;nbsp;app: nagios&lt;/i&gt;&lt;/b&gt;" style="text;html=1;strokeColor=none;fillColor=none;align=center;verticalAlign=middle;whiteSpace=wrap;rounded=0;" parent="1" vertex="1">
          <mxGeometry x="-215" y="2510" width="110" height="20" as="geometry" />
        </mxCell>
        <mxCell id="p9AXQlaozVL-q54wyYoi-563" value="" style="endArrow=none;dashed=1;html=1;" parent="1" edge="1">
          <mxGeometry width="50" height="50" relative="1" as="geometry">
            <mxPoint x="528" y="3002.53164556962" as="sourcePoint" />
            <mxPoint x="528" y="3017.46835443038" as="targetPoint" />
          </mxGeometry>
        </mxCell>
        <mxCell id="p9AXQlaozVL-q54wyYoi-567" value="" style="endArrow=classic;html=1;" parent="1" edge="1">
          <mxGeometry width="50" height="50" relative="1" as="geometry">
            <mxPoint x="-120" y="2500" as="sourcePoint" />
            <mxPoint x="40" y="2500" as="targetPoint" />
          </mxGeometry>
        </mxCell>
        <mxCell id="p9AXQlaozVL-q54wyYoi-568" value="&lt;b&gt;&lt;i&gt;Label:&lt;br&gt;app: nagios&lt;/i&gt;&lt;/b&gt;" style="text;html=1;align=center;verticalAlign=middle;resizable=0;points=[];autosize=1;" parent="1" vertex="1">
          <mxGeometry x="24" y="2455" width="80" height="30" as="geometry" />
        </mxCell>
        <mxCell id="p9AXQlaozVL-q54wyYoi-569" value="&lt;b&gt;&lt;i&gt;Label:&lt;br&gt;app: nagios&lt;/i&gt;&lt;/b&gt;" style="text;html=1;align=center;verticalAlign=middle;resizable=0;points=[];autosize=1;" parent="1" vertex="1">
          <mxGeometry x="23" y="2600" width="80" height="30" as="geometry" />
        </mxCell>
        <mxCell id="p9AXQlaozVL-q54wyYoi-570" value="&lt;b&gt;&lt;i&gt;&lt;span style=&quot;color: rgb(0 , 0 , 0) ; font-family: &amp;#34;helvetica&amp;#34; ; font-size: 12px ; letter-spacing: normal ; text-align: center ; text-indent: 0px ; text-transform: none ; word-spacing: 0px ; background-color: rgb(255 , 255 , 255) ; display: inline ; float: none&quot;&gt;Label:&lt;/span&gt;&lt;br style=&quot;color: rgb(0 , 0 , 0) ; font-family: &amp;#34;helvetica&amp;#34; ; font-size: 12px ; letter-spacing: normal ; text-align: center ; text-indent: 0px ; text-transform: none ; word-spacing: 0px ; background-color: rgb(255 , 255 , 255)&quot;&gt;&lt;/i&gt;&lt;/b&gt;&lt;span style=&quot;color: rgb(0 , 0 , 0) ; font-family: &amp;#34;helvetica&amp;#34; ; font-size: 12px ; letter-spacing: normal ; text-align: center ; text-indent: 0px ; text-transform: none ; word-spacing: 0px ; background-color: rgb(255 , 255 , 255) ; display: inline ; float: none&quot;&gt;&lt;b&gt;&lt;i&gt;app: nagios&lt;/i&gt;&lt;/b&gt;&lt;/span&gt;" style="text;whiteSpace=wrap;html=1;" parent="1" vertex="1">
          <mxGeometry x="1.5300000000000011" y="2770" width="90" height="40" as="geometry" />
        </mxCell>
        <mxCell id="p9AXQlaozVL-q54wyYoi-571" value="" style="endArrow=classic;startArrow=classic;html=1;entryX=-0.012;entryY=0.567;entryDx=0;entryDy=0;entryPerimeter=0;" parent="1" target="p9AXQlaozVL-q54wyYoi-568" edge="1">
          <mxGeometry width="50" height="50" relative="1" as="geometry">
            <mxPoint x="-107" y="2520" as="sourcePoint" />
            <mxPoint x="-57" y="2470" as="targetPoint" />
          </mxGeometry>
        </mxCell>
        <mxCell id="p9AXQlaozVL-q54wyYoi-573" value="" style="endArrow=classic;startArrow=classic;html=1;exitX=0;exitY=0.467;exitDx=0;exitDy=0;exitPerimeter=0;" parent="1" source="p9AXQlaozVL-q54wyYoi-569" edge="1">
          <mxGeometry width="50" height="50" relative="1" as="geometry">
            <mxPoint x="-160" y="2580" as="sourcePoint" />
            <mxPoint x="-110" y="2530" as="targetPoint" />
          </mxGeometry>
        </mxCell>
        <mxCell id="p9AXQlaozVL-q54wyYoi-574" value="" style="endArrow=classic;startArrow=classic;html=1;exitX=0.161;exitY=0.05;exitDx=0;exitDy=0;exitPerimeter=0;" parent="1" source="p9AXQlaozVL-q54wyYoi-570" edge="1">
          <mxGeometry width="50" height="50" relative="1" as="geometry">
            <mxPoint x="-178.25" y="2590" as="sourcePoint" />
            <mxPoint x="-120" y="2540" as="targetPoint" />
          </mxGeometry>
        </mxCell>
        <mxCell id="GO9DIAoga7OvKI35sRTv-1" value="&lt;h1&gt;POD&lt;/h1&gt;" style="text;html=1;strokeColor=none;fillColor=none;spacing=5;spacingTop=-20;whiteSpace=wrap;overflow=hidden;rounded=0;" parent="1" vertex="1">
          <mxGeometry x="-365" y="10" width="64.47" height="30" as="geometry" />
        </mxCell>
        <mxCell id="GO9DIAoga7OvKI35sRTv-2" value="" style="rounded=0;whiteSpace=wrap;html=1;" parent="1" vertex="1">
          <mxGeometry x="-197" y="173" width="320" height="100" as="geometry" />
        </mxCell>
        <mxCell id="GO9DIAoga7OvKI35sRTv-10" value="" style="shape=image;html=1;verticalAlign=top;verticalLabelPosition=bottom;labelBackgroundColor=#ffffff;imageAspect=0;aspect=fixed;image=https://cdn3.iconfinder.com/data/icons/computers/64/ethernet_card_Vista.png" parent="1" vertex="1">
          <mxGeometry x="-12.000000000000014" y="103" width="64" height="64" as="geometry" />
        </mxCell>
        <mxCell id="GO9DIAoga7OvKI35sRTv-13" value="&lt;b&gt;10.1.55.1&lt;/b&gt;" style="text;html=1;strokeColor=none;fillColor=none;align=center;verticalAlign=middle;whiteSpace=wrap;rounded=0;" parent="1" vertex="1">
          <mxGeometry x="27.99999999999997" y="103" width="70" height="20" as="geometry" />
        </mxCell>
        <mxCell id="GO9DIAoga7OvKI35sRTv-14" value="&lt;b&gt;POD&lt;/b&gt;" style="text;html=1;align=center;verticalAlign=middle;resizable=0;points=[];autosize=1;" parent="1" vertex="1">
          <mxGeometry x="-70" y="60" width="40" height="20" as="geometry" />
        </mxCell>
        <mxCell id="GO9DIAoga7OvKI35sRTv-15" value="Volume" style="shape=cylinder;whiteSpace=wrap;html=1;boundedLbl=1;backgroundOutline=1;" parent="1" vertex="1">
          <mxGeometry x="-184.75" y="198" width="75.5" height="50" as="geometry" />
        </mxCell>
        <mxCell id="GO9DIAoga7OvKI35sRTv-20" value="" style="endArrow=none;dashed=1;html=1;" parent="1" edge="1">
          <mxGeometry width="50" height="50" relative="1" as="geometry">
            <mxPoint x="-117" y="113" as="sourcePoint" />
            <mxPoint x="-117" y="113" as="targetPoint" />
          </mxGeometry>
        </mxCell>
        <mxCell id="GO9DIAoga7OvKI35sRTv-23" value="" style="whiteSpace=wrap;html=1;aspect=fixed;" parent="1" vertex="1">
          <mxGeometry x="-70" y="133" width="40" height="40" as="geometry" />
        </mxCell>
        <mxCell id="GO9DIAoga7OvKI35sRTv-24" value="&lt;b&gt;C1&lt;/b&gt;" style="text;html=1;align=center;verticalAlign=middle;resizable=0;points=[];autosize=1;" parent="1" vertex="1">
          <mxGeometry x="-64.5" y="143" width="30" height="20" as="geometry" />
        </mxCell>
        <mxCell id="GO9DIAoga7OvKI35sRTv-27" value="&lt;b&gt;C1&amp;nbsp; 10.1.55.1:8080&lt;/b&gt;" style="text;html=1;align=center;verticalAlign=middle;resizable=0;points=[];autosize=1;" parent="1" vertex="1">
          <mxGeometry x="158" y="103" width="120" height="20" as="geometry" />
        </mxCell>
        <mxCell id="GO9DIAoga7OvKI35sRTv-29" value="&lt;b&gt;C2&amp;nbsp; 10.1.55.1:9090&lt;/b&gt;" style="text;html=1;align=center;verticalAlign=middle;resizable=0;points=[];autosize=1;" parent="1" vertex="1">
          <mxGeometry x="163" y="143" width="120" height="20" as="geometry" />
        </mxCell>
        <mxCell id="GO9DIAoga7OvKI35sRTv-28" value="&lt;b&gt;Podip:containerPort&lt;/b&gt;" style="text;html=1;align=center;verticalAlign=middle;resizable=0;points=[];autosize=1;" parent="1" vertex="1">
          <mxGeometry x="119.02000000000001" y="63" width="130" height="20" as="geometry" />
        </mxCell>
        <mxCell id="GO9DIAoga7OvKI35sRTv-31" value="" style="endArrow=none;html=1;entryX=0;entryY=0.75;entryDx=0;entryDy=0;entryPerimeter=0;exitX=0.386;exitY=1.25;exitDx=0;exitDy=0;exitPerimeter=0;" parent="1" source="GO9DIAoga7OvKI35sRTv-13" target="GO9DIAoga7OvKI35sRTv-27" edge="1">
          <mxGeometry width="50" height="50" relative="1" as="geometry">
            <mxPoint x="67" y="133" as="sourcePoint" />
            <mxPoint x="-47" y="143" as="targetPoint" />
          </mxGeometry>
        </mxCell>
        <mxCell id="GO9DIAoga7OvKI35sRTv-32" value="" style="endArrow=none;html=1;entryX=-0.025;entryY=0.75;entryDx=0;entryDy=0;entryPerimeter=0;exitX=1.023;exitY=0.656;exitDx=0;exitDy=0;exitPerimeter=0;" parent="1" source="GO9DIAoga7OvKI35sRTv-10" target="GO9DIAoga7OvKI35sRTv-29" edge="1">
          <mxGeometry width="50" height="50" relative="1" as="geometry">
            <mxPoint x="-97" y="193" as="sourcePoint" />
            <mxPoint x="-47" y="143" as="targetPoint" />
          </mxGeometry>
        </mxCell>
        <mxCell id="GO9DIAoga7OvKI35sRTv-37" value="" style="rounded=1;whiteSpace=wrap;html=1;" parent="1" vertex="1">
          <mxGeometry x="-97" y="83" width="95" height="90" as="geometry" />
        </mxCell>
        <mxCell id="GO9DIAoga7OvKI35sRTv-38" value="C2" style="whiteSpace=wrap;html=1;aspect=fixed;" parent="1" vertex="1">
          <mxGeometry x="-73.87" y="83" width="41.75" height="41.75" as="geometry" />
        </mxCell>
        <mxCell id="GO9DIAoga7OvKI35sRTv-39" value="C1" style="whiteSpace=wrap;html=1;aspect=fixed;" parent="1" vertex="1">
          <mxGeometry x="-70.00000000000003" y="133" width="40" height="40" as="geometry" />
        </mxCell>
        <mxCell id="GO9DIAoga7OvKI35sRTv-44" value="" style="endArrow=classic;html=1;entryX=-0.032;entryY=0.333;entryDx=0;entryDy=0;entryPerimeter=0;exitX=0.5;exitY=0;exitDx=0;exitDy=0;" parent="1" source="GO9DIAoga7OvKI35sRTv-15" target="GO9DIAoga7OvKI35sRTv-37" edge="1">
          <mxGeometry width="50" height="50" relative="1" as="geometry">
            <mxPoint x="-147" y="183" as="sourcePoint" />
            <mxPoint x="-47" y="143" as="targetPoint" />
            <Array as="points">
              <mxPoint x="-147" y="113" />
            </Array>
          </mxGeometry>
        </mxCell>
        <mxCell id="GO9DIAoga7OvKI35sRTv-45" value="" style="endArrow=none;dashed=1;html=1;exitX=-0.021;exitY=0.411;exitDx=0;exitDy=0;exitPerimeter=0;entryX=0;entryY=0.5;entryDx=0;entryDy=0;" parent="1" source="GO9DIAoga7OvKI35sRTv-37" target="GO9DIAoga7OvKI35sRTv-38" edge="1">
          <mxGeometry width="50" height="50" relative="1" as="geometry">
            <mxPoint x="-97" y="193" as="sourcePoint" />
            <mxPoint x="-47" y="143" as="targetPoint" />
          </mxGeometry>
        </mxCell>
        <mxCell id="GO9DIAoga7OvKI35sRTv-46" value="" style="endArrow=none;dashed=1;html=1;exitX=0;exitY=0.5;exitDx=0;exitDy=0;entryX=0;entryY=0.5;entryDx=0;entryDy=0;" parent="1" source="GO9DIAoga7OvKI35sRTv-37" target="GO9DIAoga7OvKI35sRTv-39" edge="1">
          <mxGeometry width="50" height="50" relative="1" as="geometry">
            <mxPoint x="-97" y="193" as="sourcePoint" />
            <mxPoint x="-47" y="143" as="targetPoint" />
          </mxGeometry>
        </mxCell>
        <mxCell id="GO9DIAoga7OvKI35sRTv-47" value="" style="endArrow=none;html=1;entryX=1;entryY=0.5;entryDx=0;entryDy=0;exitX=1;exitY=0.5;exitDx=0;exitDy=0;" parent="1" source="GO9DIAoga7OvKI35sRTv-38" target="GO9DIAoga7OvKI35sRTv-37" edge="1">
          <mxGeometry width="50" height="50" relative="1" as="geometry">
            <mxPoint x="-97" y="193" as="sourcePoint" />
            <mxPoint x="-47" y="143" as="targetPoint" />
          </mxGeometry>
        </mxCell>
        <mxCell id="GO9DIAoga7OvKI35sRTv-48" value="" style="endArrow=none;html=1;entryX=1;entryY=0.5;entryDx=0;entryDy=0;exitX=1;exitY=0.5;exitDx=0;exitDy=0;" parent="1" source="GO9DIAoga7OvKI35sRTv-39" target="GO9DIAoga7OvKI35sRTv-37" edge="1">
          <mxGeometry width="50" height="50" relative="1" as="geometry">
            <mxPoint x="-97" y="193" as="sourcePoint" />
            <mxPoint x="-47" y="143" as="targetPoint" />
          </mxGeometry>
        </mxCell>
        <mxCell id="GO9DIAoga7OvKI35sRTv-49" value="&lt;i&gt;&lt;b&gt;Labels:&amp;nbsp;&lt;br&gt;&amp;nbsp; &amp;nbsp; &amp;nbsp; &amp;nbsp; &amp;nbsp;app: webapp&lt;br&gt;&amp;nbsp; &amp;nbsp; &amp;nbsp;app:javapp&lt;br&gt;&amp;nbsp; &amp;nbsp; &amp;nbsp; &amp;nbsp; &amp;nbsp; &amp;nbsp;app:mavenapp&lt;br&gt;&lt;/b&gt;&lt;/i&gt;" style="text;html=1;align=center;verticalAlign=middle;resizable=0;points=[];autosize=1;" parent="1" vertex="1">
          <mxGeometry x="75.00000000000003" y="1918" width="140" height="60" as="geometry" />
        </mxCell>
        <mxCell id="GO9DIAoga7OvKI35sRTv-50" value="&lt;i&gt;&lt;b&gt;Labels:&amp;nbsp;&lt;br&gt;&amp;nbsp; &amp;nbsp; &amp;nbsp; &amp;nbsp; &amp;nbsp;app: webapp&lt;br&gt;&amp;nbsp; &amp;nbsp; &amp;nbsp;app:javapp&lt;br&gt;&amp;nbsp; &amp;nbsp; &amp;nbsp; &amp;nbsp; &amp;nbsp; &amp;nbsp;app:mavenapp&lt;br&gt;&lt;/b&gt;&lt;/i&gt;" style="text;html=1;align=center;verticalAlign=middle;resizable=0;points=[];autosize=1;" parent="1" vertex="1">
          <mxGeometry x="55.00000000000003" y="2070" width="140" height="60" as="geometry" />
        </mxCell>
        <mxCell id="vNbZXF4qumSnnVeQtQN_-2" value="&lt;h1&gt;Deployment&lt;/h1&gt;" style="text;html=1;strokeColor=none;fillColor=none;spacing=5;spacingTop=-20;whiteSpace=wrap;overflow=hidden;rounded=0;" vertex="1" parent="1">
          <mxGeometry x="-353" y="2960" width="150" height="40" as="geometry" />
        </mxCell>
        <mxCell id="vNbZXF4qumSnnVeQtQN_-3" value="" style="ellipse;whiteSpace=wrap;html=1;aspect=fixed;" vertex="1" parent="1">
          <mxGeometry x="-9.469999999999999" y="3170" width="40" height="40" as="geometry" />
        </mxCell>
        <mxCell id="vNbZXF4qumSnnVeQtQN_-4" value="" style="html=1;dashed=0;whitespace=wrap;fillColor=#2875E2;strokeColor=#ffffff;points=[[0.005,0.63,0],[0.1,0.2,0],[0.9,0.2,0],[0.5,0,0],[0.995,0.63,0],[0.72,0.99,0],[0.5,1,0],[0.28,0.99,0]];shape=mxgraph.kubernetes.icon;prIcon=pod" vertex="1" parent="1">
          <mxGeometry x="-15.469999999999999" y="3177.5" width="52" height="25" as="geometry" />
        </mxCell>
        <mxCell id="vNbZXF4qumSnnVeQtQN_-5" value="" style="ellipse;whiteSpace=wrap;html=1;aspect=fixed;" vertex="1" parent="1">
          <mxGeometry x="-93.47" y="3170" width="40" height="40" as="geometry" />
        </mxCell>
        <mxCell id="vNbZXF4qumSnnVeQtQN_-6" value="" style="html=1;dashed=0;whitespace=wrap;fillColor=#2875E2;strokeColor=#ffffff;points=[[0.005,0.63,0],[0.1,0.2,0],[0.9,0.2,0],[0.5,0,0],[0.995,0.63,0],[0.72,0.99,0],[0.5,1,0],[0.28,0.99,0]];shape=mxgraph.kubernetes.icon;prIcon=pod" vertex="1" parent="1">
          <mxGeometry x="-99.47" y="3177.5" width="52" height="25" as="geometry" />
        </mxCell>
        <mxCell id="vNbZXF4qumSnnVeQtQN_-8" value="" style="ellipse;whiteSpace=wrap;html=1;aspect=fixed;" vertex="1" parent="1">
          <mxGeometry x="70.53" y="3170" width="40" height="40" as="geometry" />
        </mxCell>
        <mxCell id="vNbZXF4qumSnnVeQtQN_-9" value="" style="html=1;dashed=0;whitespace=wrap;fillColor=#2875E2;strokeColor=#ffffff;points=[[0.005,0.63,0],[0.1,0.2,0],[0.9,0.2,0],[0.5,0,0],[0.995,0.63,0],[0.72,0.99,0],[0.5,1,0],[0.28,0.99,0]];shape=mxgraph.kubernetes.icon;prIcon=pod" vertex="1" parent="1">
          <mxGeometry x="64.53" y="3177.5" width="52" height="25" as="geometry" />
        </mxCell>
        <mxCell id="vNbZXF4qumSnnVeQtQN_-10" value="" style="ellipse;whiteSpace=wrap;html=1;aspect=fixed;" vertex="1" parent="1">
          <mxGeometry x="-11.469999999999999" y="3250" width="40" height="40" as="geometry" />
        </mxCell>
        <mxCell id="vNbZXF4qumSnnVeQtQN_-11" value="" style="html=1;dashed=0;whitespace=wrap;fillColor=#2875E2;strokeColor=#ffffff;points=[[0.005,0.63,0],[0.1,0.2,0],[0.9,0.2,0],[0.5,0,0],[0.995,0.63,0],[0.72,0.99,0],[0.5,1,0],[0.28,0.99,0]];shape=mxgraph.kubernetes.icon;prIcon=pod" vertex="1" parent="1">
          <mxGeometry x="-17.47" y="3257.5" width="52" height="25" as="geometry" />
        </mxCell>
        <mxCell id="vNbZXF4qumSnnVeQtQN_-12" value="" style="ellipse;whiteSpace=wrap;html=1;aspect=fixed;" vertex="1" parent="1">
          <mxGeometry x="-11.469999999999999" y="3090" width="40" height="40" as="geometry" />
        </mxCell>
        <mxCell id="vNbZXF4qumSnnVeQtQN_-13" value="" style="html=1;dashed=0;whitespace=wrap;fillColor=#2875E2;strokeColor=#ffffff;points=[[0.005,0.63,0],[0.1,0.2,0],[0.9,0.2,0],[0.5,0,0],[0.995,0.63,0],[0.72,0.99,0],[0.5,1,0],[0.28,0.99,0]];shape=mxgraph.kubernetes.icon;prIcon=pod" vertex="1" parent="1">
          <mxGeometry x="-17.47" y="3097.5" width="52" height="25" as="geometry" />
        </mxCell>
        <mxCell id="vNbZXF4qumSnnVeQtQN_-17" value="" style="ellipse;whiteSpace=wrap;html=1;aspect=fixed;fillColor=none;" vertex="1" parent="1">
          <mxGeometry x="-126.94" y="3060" width="270" height="270" as="geometry" />
        </mxCell>
        <mxCell id="vNbZXF4qumSnnVeQtQN_-18" value="" style="ellipse;whiteSpace=wrap;html=1;aspect=fixed;fillColor=none;" vertex="1" parent="1">
          <mxGeometry x="-154.47" y="3030" width="330" height="330" as="geometry" />
        </mxCell>
        <mxCell id="vNbZXF4qumSnnVeQtQN_-19" value="" style="endArrow=classic;html=1;" edge="1" parent="1">
          <mxGeometry width="50" height="50" relative="1" as="geometry">
            <mxPoint x="110" y="3180" as="sourcePoint" />
            <mxPoint x="310" y="3180" as="targetPoint" />
          </mxGeometry>
        </mxCell>
        <mxCell id="vNbZXF4qumSnnVeQtQN_-20" value="POD" style="text;html=1;align=center;verticalAlign=middle;resizable=0;points=[];autosize=1;" vertex="1" parent="1">
          <mxGeometry x="315" y="3170" width="40" height="20" as="geometry" />
        </mxCell>
        <mxCell id="vNbZXF4qumSnnVeQtQN_-21" value="" style="endArrow=classic;html=1;exitX=0.829;exitY=0.112;exitDx=0;exitDy=0;exitPerimeter=0;" edge="1" parent="1" source="vNbZXF4qumSnnVeQtQN_-18">
          <mxGeometry width="50" height="50" relative="1" as="geometry">
            <mxPoint x="60" y="3180" as="sourcePoint" />
            <mxPoint x="300" y="3067" as="targetPoint" />
          </mxGeometry>
        </mxCell>
        <mxCell id="vNbZXF4qumSnnVeQtQN_-22" value="Deployment" style="text;html=1;align=center;verticalAlign=middle;resizable=0;points=[];autosize=1;" vertex="1" parent="1">
          <mxGeometry x="300" y="3050" width="80" height="20" as="geometry" />
        </mxCell>
        <mxCell id="vNbZXF4qumSnnVeQtQN_-26" value="" style="endArrow=classic;html=1;" edge="1" parent="1">
          <mxGeometry width="50" height="50" relative="1" as="geometry">
            <mxPoint x="120" y="3130" as="sourcePoint" />
            <mxPoint x="290" y="3130" as="targetPoint" />
            <Array as="points">
              <mxPoint x="220" y="3130" />
            </Array>
          </mxGeometry>
        </mxCell>
        <mxCell id="vNbZXF4qumSnnVeQtQN_-27" value="ReplicaSet" style="text;html=1;align=center;verticalAlign=middle;resizable=0;points=[];autosize=1;" vertex="1" parent="1">
          <mxGeometry x="297.53" y="3122.5" width="70" height="20" as="geometry" />
        </mxCell>
        <mxCell id="vNbZXF4qumSnnVeQtQN_-28" value="" style="endArrow=classic;html=1;exitX=0.498;exitY=0.727;exitDx=0;exitDy=0;exitPerimeter=0;" edge="1" parent="1" source="vNbZXF4qumSnnVeQtQN_-18">
          <mxGeometry width="50" height="50" relative="1" as="geometry">
            <mxPoint x="60" y="3180" as="sourcePoint" />
            <mxPoint x="300" y="3270" as="targetPoint" />
          </mxGeometry>
        </mxCell>
        <mxCell id="vNbZXF4qumSnnVeQtQN_-29" value="Container&lt;br&gt;" style="text;html=1;align=center;verticalAlign=middle;resizable=0;points=[];autosize=1;" vertex="1" parent="1">
          <mxGeometry x="305" y="3260" width="70" height="20" as="geometry" />
        </mxCell>
        <mxCell id="vNbZXF4qumSnnVeQtQN_-30" value="&lt;h3&gt;1. Recreate&lt;/h3&gt;" style="text;html=1;align=center;verticalAlign=middle;resizable=0;points=[];autosize=1;" vertex="1" parent="1">
          <mxGeometry x="-320" y="3080" width="90" height="50" as="geometry" />
        </mxCell>
        <mxCell id="vNbZXF4qumSnnVeQtQN_-39" value="&lt;h3&gt;&lt;b&gt;2. Rolling Update&lt;/b&gt;&lt;/h3&gt;" style="text;html=1;strokeColor=none;fillColor=none;align=center;verticalAlign=middle;whiteSpace=wrap;rounded=0;" vertex="1" parent="1">
          <mxGeometry x="-318.25" y="3122.5" width="127" height="20" as="geometry" />
        </mxCell>
        <mxCell id="vNbZXF4qumSnnVeQtQN_-41" value="&lt;h3 style=&quot;color: rgb(0, 0, 0); font-family: helvetica; font-style: normal; letter-spacing: normal; text-align: center; text-indent: 0px; text-transform: none; word-spacing: 0px; background-color: rgb(255, 255, 255);&quot;&gt;1. Recreate&lt;/h3&gt;" style="text;whiteSpace=wrap;html=1;" vertex="1" parent="1">
          <mxGeometry x="-322.47" y="3400" width="100" height="60" as="geometry" />
        </mxCell>
        <mxCell id="vNbZXF4qumSnnVeQtQN_-45" value="" style="ellipse;whiteSpace=wrap;html=1;aspect=fixed;fillColor=none;" vertex="1" parent="1">
          <mxGeometry x="-50" y="3430" width="50" height="50" as="geometry" />
        </mxCell>
        <mxCell id="vNbZXF4qumSnnVeQtQN_-48" value="" style="ellipse;whiteSpace=wrap;html=1;aspect=fixed;fillColor=none;" vertex="1" parent="1">
          <mxGeometry x="-45" y="3550" width="50" height="50" as="geometry" />
        </mxCell>
        <mxCell id="vNbZXF4qumSnnVeQtQN_-57" value="" style="html=1;dashed=0;whitespace=wrap;fillColor=none;points=[[0.005,0.63,0],[0.1,0.2,0],[0.9,0.2,0],[0.5,0,0],[0.995,0.63,0],[0.72,0.99,0],[0.5,1,0],[0.28,0.99,0]];shape=mxgraph.kubernetes.icon;prIcon=pod;" vertex="1" parent="1">
          <mxGeometry x="-34.5" y="3560" width="29" height="30" as="geometry" />
        </mxCell>
        <mxCell id="vNbZXF4qumSnnVeQtQN_-65" value="" style="endArrow=classic;startArrow=classic;html=1;entryX=0;entryY=0.5;entryDx=0;entryDy=0;exitX=0;exitY=0.5;exitDx=0;exitDy=0;" edge="1" parent="1" source="vNbZXF4qumSnnVeQtQN_-48" target="vNbZXF4qumSnnVeQtQN_-45">
          <mxGeometry width="50" height="50" relative="1" as="geometry">
            <mxPoint x="60" y="3600" as="sourcePoint" />
            <mxPoint x="110" y="3550" as="targetPoint" />
            <Array as="points">
              <mxPoint x="-180" y="3575" />
              <mxPoint x="-180" y="3460" />
              <mxPoint x="-170" y="3455" />
            </Array>
          </mxGeometry>
        </mxCell>
        <mxCell id="vNbZXF4qumSnnVeQtQN_-68" value="" style="ellipse;whiteSpace=wrap;html=1;aspect=fixed;fillColor=none;" vertex="1" parent="1">
          <mxGeometry x="250" y="3430" width="50" height="50" as="geometry" />
        </mxCell>
        <mxCell id="vNbZXF4qumSnnVeQtQN_-69" value="" style="ellipse;whiteSpace=wrap;html=1;aspect=fixed;fillColor=none;" vertex="1" parent="1">
          <mxGeometry x="255" y="3550" width="50" height="50" as="geometry" />
        </mxCell>
        <mxCell id="vNbZXF4qumSnnVeQtQN_-70" value="" style="html=1;dashed=0;whitespace=wrap;fillColor=none;points=[[0.005,0.63,0],[0.1,0.2,0],[0.9,0.2,0],[0.5,0,0],[0.995,0.63,0],[0.72,0.99,0],[0.5,1,0],[0.28,0.99,0]];shape=mxgraph.kubernetes.icon;prIcon=pod" vertex="1" parent="1">
          <mxGeometry x="265.5" y="3560" width="29" height="30" as="geometry" />
        </mxCell>
        <mxCell id="vNbZXF4qumSnnVeQtQN_-71" value="" style="html=1;dashed=0;whitespace=wrap;fillColor=none;points=[[0.005,0.63,0],[0.1,0.2,0],[0.9,0.2,0],[0.5,0,0],[0.995,0.63,0],[0.72,0.99,0],[0.5,1,0],[0.28,0.99,0]];shape=mxgraph.kubernetes.icon;prIcon=pod" vertex="1" parent="1">
          <mxGeometry x="260.5" y="3440" width="29" height="30" as="geometry" />
        </mxCell>
        <mxCell id="vNbZXF4qumSnnVeQtQN_-72" value="" style="endArrow=classic;startArrow=classic;html=1;entryX=0;entryY=0.5;entryDx=0;entryDy=0;exitX=0;exitY=0.5;exitDx=0;exitDy=0;" edge="1" parent="1" source="vNbZXF4qumSnnVeQtQN_-69" target="vNbZXF4qumSnnVeQtQN_-68">
          <mxGeometry width="50" height="50" relative="1" as="geometry">
            <mxPoint x="360" y="3600" as="sourcePoint" />
            <mxPoint x="410" y="3550" as="targetPoint" />
            <Array as="points">
              <mxPoint x="120" y="3575" />
              <mxPoint x="120" y="3460" />
              <mxPoint x="130" y="3455" />
            </Array>
          </mxGeometry>
        </mxCell>
        <mxCell id="vNbZXF4qumSnnVeQtQN_-73" value="" style="ellipse;whiteSpace=wrap;html=1;aspect=fixed;fillColor=none;" vertex="1" parent="1">
          <mxGeometry x="-53.47" y="3670" width="50" height="50" as="geometry" />
        </mxCell>
        <mxCell id="vNbZXF4qumSnnVeQtQN_-74" value="" style="ellipse;whiteSpace=wrap;html=1;aspect=fixed;fillColor=none;" vertex="1" parent="1">
          <mxGeometry x="-48.47" y="3790" width="50" height="50" as="geometry" />
        </mxCell>
        <mxCell id="vNbZXF4qumSnnVeQtQN_-77" value="" style="endArrow=classic;startArrow=classic;html=1;entryX=0;entryY=0.5;entryDx=0;entryDy=0;exitX=0;exitY=0.5;exitDx=0;exitDy=0;" edge="1" parent="1" source="vNbZXF4qumSnnVeQtQN_-74" target="vNbZXF4qumSnnVeQtQN_-73">
          <mxGeometry width="50" height="50" relative="1" as="geometry">
            <mxPoint x="56.53" y="3840" as="sourcePoint" />
            <mxPoint x="106.53" y="3790" as="targetPoint" />
            <Array as="points">
              <mxPoint x="-183.47" y="3815" />
              <mxPoint x="-183.47" y="3700" />
              <mxPoint x="-173.47" y="3695" />
            </Array>
          </mxGeometry>
        </mxCell>
        <mxCell id="vNbZXF4qumSnnVeQtQN_-78" value="" style="ellipse;whiteSpace=wrap;html=1;aspect=fixed;fillColor=none;" vertex="1" parent="1">
          <mxGeometry x="259.5" y="3670" width="50" height="50" as="geometry" />
        </mxCell>
        <mxCell id="vNbZXF4qumSnnVeQtQN_-79" value="" style="ellipse;whiteSpace=wrap;html=1;aspect=fixed;fillColor=none;" vertex="1" parent="1">
          <mxGeometry x="264.5" y="3790" width="50" height="50" as="geometry" />
        </mxCell>
        <mxCell id="vNbZXF4qumSnnVeQtQN_-80" value="" style="html=1;dashed=0;whitespace=wrap;fillColor=#2875E2;strokeColor=#ffffff;points=[[0.005,0.63,0],[0.1,0.2,0],[0.9,0.2,0],[0.5,0,0],[0.995,0.63,0],[0.72,0.99,0],[0.5,1,0],[0.28,0.99,0]];shape=mxgraph.kubernetes.icon;prIcon=pod" vertex="1" parent="1">
          <mxGeometry x="275" y="3800" width="29" height="30" as="geometry" />
        </mxCell>
        <mxCell id="vNbZXF4qumSnnVeQtQN_-81" value="" style="html=1;dashed=0;whitespace=wrap;fillColor=#2875E2;strokeColor=#ffffff;points=[[0.005,0.63,0],[0.1,0.2,0],[0.9,0.2,0],[0.5,0,0],[0.995,0.63,0],[0.72,0.99,0],[0.5,1,0],[0.28,0.99,0]];shape=mxgraph.kubernetes.icon;prIcon=pod" vertex="1" parent="1">
          <mxGeometry x="270" y="3680" width="29" height="30" as="geometry" />
        </mxCell>
        <mxCell id="vNbZXF4qumSnnVeQtQN_-82" value="" style="endArrow=classic;startArrow=classic;html=1;entryX=0;entryY=0.5;entryDx=0;entryDy=0;exitX=0;exitY=0.5;exitDx=0;exitDy=0;" edge="1" parent="1" source="vNbZXF4qumSnnVeQtQN_-79" target="vNbZXF4qumSnnVeQtQN_-78">
          <mxGeometry width="50" height="50" relative="1" as="geometry">
            <mxPoint x="369.5" y="3840" as="sourcePoint" />
            <mxPoint x="419.5" y="3790" as="targetPoint" />
            <Array as="points">
              <mxPoint x="129.5" y="3815" />
              <mxPoint x="129.5" y="3700" />
              <mxPoint x="139.5" y="3695" />
            </Array>
          </mxGeometry>
        </mxCell>
        <mxCell id="vNbZXF4qumSnnVeQtQN_-83" value="" style="endArrow=none;dashed=1;html=1;fillColor=#fa6800;strokeColor=#C73500;strokeWidth=2;" edge="1" parent="1">
          <mxGeometry width="50" height="50" relative="1" as="geometry">
            <mxPoint x="249" y="3480" as="sourcePoint" />
            <mxPoint x="299" y="3430" as="targetPoint" />
          </mxGeometry>
        </mxCell>
        <mxCell id="vNbZXF4qumSnnVeQtQN_-84" value="" style="endArrow=none;dashed=1;html=1;fillColor=#fa6800;strokeColor=#C73500;strokeWidth=2;" edge="1" parent="1">
          <mxGeometry width="50" height="50" relative="1" as="geometry">
            <mxPoint x="256.53" y="3600" as="sourcePoint" />
            <mxPoint x="306.53" y="3550" as="targetPoint" />
          </mxGeometry>
        </mxCell>
        <mxCell id="vNbZXF4qumSnnVeQtQN_-85" value="" style="endArrow=none;dashed=1;html=1;fillColor=#fa6800;strokeColor=#C73500;strokeWidth=2;" edge="1" parent="1">
          <mxGeometry width="50" height="50" relative="1" as="geometry">
            <mxPoint x="294.5" y="3480" as="sourcePoint" />
            <mxPoint x="254.5" y="3430" as="targetPoint" />
          </mxGeometry>
        </mxCell>
        <mxCell id="vNbZXF4qumSnnVeQtQN_-86" value="" style="endArrow=none;dashed=1;html=1;fillColor=#fa6800;strokeColor=#C73500;strokeWidth=2;" edge="1" parent="1">
          <mxGeometry width="50" height="50" relative="1" as="geometry">
            <mxPoint x="299" y="3600" as="sourcePoint" />
            <mxPoint x="259" y="3550" as="targetPoint" />
          </mxGeometry>
        </mxCell>
        <mxCell id="vNbZXF4qumSnnVeQtQN_-58" value="" style="html=1;dashed=0;whitespace=wrap;points=[[0.005,0.63,0],[0.1,0.2,0],[0.9,0.2,0],[0.5,0,0],[0.995,0.63,0],[0.72,0.99,0],[0.5,1,0],[0.28,0.99,0]];shape=mxgraph.kubernetes.icon;prIcon=pod;" vertex="1" parent="1">
          <mxGeometry x="-39.5" y="3440" width="29" height="30" as="geometry" />
        </mxCell>
        <mxCell id="vNbZXF4qumSnnVeQtQN_-88" value="&lt;h3 style=&quot;color: rgb(0, 0, 0); font-family: helvetica; font-style: normal; letter-spacing: normal; text-align: center; text-indent: 0px; text-transform: none; word-spacing: 0px; background-color: rgb(255, 255, 255);&quot;&gt;&lt;b&gt;2. Rolling Update&lt;/b&gt;&lt;/h3&gt;" style="text;whiteSpace=wrap;html=1;" vertex="1" parent="1">
          <mxGeometry x="-320" y="3880" width="140" height="60" as="geometry" />
        </mxCell>
        <mxCell id="vNbZXF4qumSnnVeQtQN_-90" value="" style="ellipse;whiteSpace=wrap;html=1;aspect=fixed;fillColor=none;" vertex="1" parent="1">
          <mxGeometry x="-81.53" y="3940" width="50" height="50" as="geometry" />
        </mxCell>
        <mxCell id="vNbZXF4qumSnnVeQtQN_-91" value="" style="ellipse;whiteSpace=wrap;html=1;aspect=fixed;fillColor=none;" vertex="1" parent="1">
          <mxGeometry x="-76.53" y="4060" width="50" height="50" as="geometry" />
        </mxCell>
        <mxCell id="vNbZXF4qumSnnVeQtQN_-92" value="" style="html=1;dashed=0;whitespace=wrap;fillColor=none;points=[[0.005,0.63,0],[0.1,0.2,0],[0.9,0.2,0],[0.5,0,0],[0.995,0.63,0],[0.72,0.99,0],[0.5,1,0],[0.28,0.99,0]];shape=mxgraph.kubernetes.icon;prIcon=pod;" vertex="1" parent="1">
          <mxGeometry x="-66.03" y="4070" width="29" height="30" as="geometry" />
        </mxCell>
        <mxCell id="vNbZXF4qumSnnVeQtQN_-93" value="" style="endArrow=classic;startArrow=classic;html=1;entryX=0;entryY=0.5;entryDx=0;entryDy=0;exitX=0;exitY=0.5;exitDx=0;exitDy=0;" edge="1" parent="1" source="vNbZXF4qumSnnVeQtQN_-91" target="vNbZXF4qumSnnVeQtQN_-90">
          <mxGeometry width="50" height="50" relative="1" as="geometry">
            <mxPoint x="28.47" y="4110" as="sourcePoint" />
            <mxPoint x="78.47" y="4060" as="targetPoint" />
            <Array as="points">
              <mxPoint x="-211.53" y="4085" />
              <mxPoint x="-211.53" y="3970" />
              <mxPoint x="-201.53" y="3965" />
            </Array>
          </mxGeometry>
        </mxCell>
        <mxCell id="vNbZXF4qumSnnVeQtQN_-94" value="" style="ellipse;whiteSpace=wrap;html=1;aspect=fixed;fillColor=none;" vertex="1" parent="1">
          <mxGeometry x="205.5" y="3930" width="50" height="50" as="geometry" />
        </mxCell>
        <mxCell id="vNbZXF4qumSnnVeQtQN_-95" value="" style="ellipse;whiteSpace=wrap;html=1;aspect=fixed;fillColor=none;" vertex="1" parent="1">
          <mxGeometry x="210.5" y="4050" width="50" height="50" as="geometry" />
        </mxCell>
        <mxCell id="vNbZXF4qumSnnVeQtQN_-96" value="" style="html=1;dashed=0;whitespace=wrap;fillColor=none;points=[[0.005,0.63,0],[0.1,0.2,0],[0.9,0.2,0],[0.5,0,0],[0.995,0.63,0],[0.72,0.99,0],[0.5,1,0],[0.28,0.99,0]];shape=mxgraph.kubernetes.icon;prIcon=pod" vertex="1" parent="1">
          <mxGeometry x="221" y="4060" width="29" height="30" as="geometry" />
        </mxCell>
        <mxCell id="vNbZXF4qumSnnVeQtQN_-97" value="" style="html=1;dashed=0;whitespace=wrap;fillColor=none;points=[[0.005,0.63,0],[0.1,0.2,0],[0.9,0.2,0],[0.5,0,0],[0.995,0.63,0],[0.72,0.99,0],[0.5,1,0],[0.28,0.99,0]];shape=mxgraph.kubernetes.icon;prIcon=pod" vertex="1" parent="1">
          <mxGeometry x="216" y="3940" width="29" height="30" as="geometry" />
        </mxCell>
        <mxCell id="vNbZXF4qumSnnVeQtQN_-98" value="" style="endArrow=classic;startArrow=classic;html=1;entryX=0;entryY=0.5;entryDx=0;entryDy=0;exitX=0;exitY=0.5;exitDx=0;exitDy=0;" edge="1" parent="1" source="vNbZXF4qumSnnVeQtQN_-95" target="vNbZXF4qumSnnVeQtQN_-94">
          <mxGeometry width="50" height="50" relative="1" as="geometry">
            <mxPoint x="315.5" y="4100" as="sourcePoint" />
            <mxPoint x="365.5" y="4050" as="targetPoint" />
            <Array as="points">
              <mxPoint x="75.5" y="4075" />
              <mxPoint x="75.5" y="3960" />
              <mxPoint x="85.5" y="3955" />
            </Array>
          </mxGeometry>
        </mxCell>
        <mxCell id="vNbZXF4qumSnnVeQtQN_-99" value="" style="ellipse;whiteSpace=wrap;html=1;aspect=fixed;fillColor=none;" vertex="1" parent="1">
          <mxGeometry x="-85" y="4180" width="50" height="50" as="geometry" />
        </mxCell>
        <mxCell id="vNbZXF4qumSnnVeQtQN_-100" value="" style="ellipse;whiteSpace=wrap;html=1;aspect=fixed;fillColor=none;" vertex="1" parent="1">
          <mxGeometry x="-80" y="4300" width="50" height="50" as="geometry" />
        </mxCell>
        <mxCell id="vNbZXF4qumSnnVeQtQN_-101" value="" style="endArrow=classic;startArrow=classic;html=1;entryX=0;entryY=0.5;entryDx=0;entryDy=0;exitX=0;exitY=0.5;exitDx=0;exitDy=0;" edge="1" parent="1" source="vNbZXF4qumSnnVeQtQN_-100" target="vNbZXF4qumSnnVeQtQN_-99">
          <mxGeometry width="50" height="50" relative="1" as="geometry">
            <mxPoint x="25" y="4350" as="sourcePoint" />
            <mxPoint x="75" y="4300" as="targetPoint" />
            <Array as="points">
              <mxPoint x="-215" y="4325" />
              <mxPoint x="-215" y="4210" />
              <mxPoint x="-205" y="4205" />
            </Array>
          </mxGeometry>
        </mxCell>
        <mxCell id="vNbZXF4qumSnnVeQtQN_-102" value="" style="ellipse;whiteSpace=wrap;html=1;aspect=fixed;fillColor=none;" vertex="1" parent="1">
          <mxGeometry x="295" y="4180" width="50" height="50" as="geometry" />
        </mxCell>
        <mxCell id="vNbZXF4qumSnnVeQtQN_-103" value="" style="ellipse;whiteSpace=wrap;html=1;aspect=fixed;fillColor=none;" vertex="1" parent="1">
          <mxGeometry x="300" y="4300" width="50" height="50" as="geometry" />
        </mxCell>
        <mxCell id="vNbZXF4qumSnnVeQtQN_-104" value="" style="html=1;dashed=0;whitespace=wrap;fillColor=#2875E2;strokeColor=#ffffff;points=[[0.005,0.63,0],[0.1,0.2,0],[0.9,0.2,0],[0.5,0,0],[0.995,0.63,0],[0.72,0.99,0],[0.5,1,0],[0.28,0.99,0]];shape=mxgraph.kubernetes.icon;prIcon=pod" vertex="1" parent="1">
          <mxGeometry x="310.5" y="4310" width="29" height="30" as="geometry" />
        </mxCell>
        <mxCell id="vNbZXF4qumSnnVeQtQN_-105" value="" style="html=1;dashed=0;whitespace=wrap;fillColor=#2875E2;strokeColor=#ffffff;points=[[0.005,0.63,0],[0.1,0.2,0],[0.9,0.2,0],[0.5,0,0],[0.995,0.63,0],[0.72,0.99,0],[0.5,1,0],[0.28,0.99,0]];shape=mxgraph.kubernetes.icon;prIcon=pod" vertex="1" parent="1">
          <mxGeometry x="305.5" y="4190" width="29" height="30" as="geometry" />
        </mxCell>
        <mxCell id="vNbZXF4qumSnnVeQtQN_-106" value="" style="endArrow=classic;startArrow=classic;html=1;entryX=0;entryY=0.5;entryDx=0;entryDy=0;exitX=0;exitY=0.5;exitDx=0;exitDy=0;" edge="1" parent="1" source="vNbZXF4qumSnnVeQtQN_-103" target="vNbZXF4qumSnnVeQtQN_-102">
          <mxGeometry width="50" height="50" relative="1" as="geometry">
            <mxPoint x="405" y="4350" as="sourcePoint" />
            <mxPoint x="455" y="4300" as="targetPoint" />
            <Array as="points">
              <mxPoint x="165" y="4325" />
              <mxPoint x="165" y="4210" />
              <mxPoint x="175" y="4205" />
            </Array>
          </mxGeometry>
        </mxCell>
        <mxCell id="vNbZXF4qumSnnVeQtQN_-111" value="" style="html=1;dashed=0;whitespace=wrap;points=[[0.005,0.63,0],[0.1,0.2,0],[0.9,0.2,0],[0.5,0,0],[0.995,0.63,0],[0.72,0.99,0],[0.5,1,0],[0.28,0.99,0]];shape=mxgraph.kubernetes.icon;prIcon=pod;" vertex="1" parent="1">
          <mxGeometry x="-71.03" y="3950" width="29" height="30" as="geometry" />
        </mxCell>
        <mxCell id="vNbZXF4qumSnnVeQtQN_-112" value="" style="ellipse;whiteSpace=wrap;html=1;aspect=fixed;fillColor=none;" vertex="1" parent="1">
          <mxGeometry x="300" y="3990" width="50" height="50" as="geometry" />
        </mxCell>
        <mxCell id="vNbZXF4qumSnnVeQtQN_-113" value="" style="html=1;dashed=0;whitespace=wrap;fillColor=#2875E2;strokeColor=#ffffff;points=[[0.005,0.63,0],[0.1,0.2,0],[0.9,0.2,0],[0.5,0,0],[0.995,0.63,0],[0.72,0.99,0],[0.5,1,0],[0.28,0.99,0]];shape=mxgraph.kubernetes.icon;prIcon=pod" vertex="1" parent="1">
          <mxGeometry x="310.5" y="4000" width="29" height="30" as="geometry" />
        </mxCell>
        <mxCell id="vNbZXF4qumSnnVeQtQN_-114" value="" style="endArrow=classic;html=1;strokeWidth=1;" edge="1" parent="1">
          <mxGeometry width="50" height="50" relative="1" as="geometry">
            <mxPoint x="80" y="4020" as="sourcePoint" />
            <mxPoint x="290" y="4020" as="targetPoint" />
          </mxGeometry>
        </mxCell>
        <mxCell id="vNbZXF4qumSnnVeQtQN_-115" value="" style="html=1;dashed=0;whitespace=wrap;fillColor=none;points=[[0.005,0.63,0],[0.1,0.2,0],[0.9,0.2,0],[0.5,0,0],[0.995,0.63,0],[0.72,0.99,0],[0.5,1,0],[0.28,0.99,0]];shape=mxgraph.kubernetes.icon;prIcon=pod" vertex="1" parent="1">
          <mxGeometry x="-74.5" y="4190" width="29" height="30" as="geometry" />
        </mxCell>
        <mxCell id="vNbZXF4qumSnnVeQtQN_-116" value="" style="html=1;dashed=0;whitespace=wrap;fillColor=none;points=[[0.005,0.63,0],[0.1,0.2,0],[0.9,0.2,0],[0.5,0,0],[0.995,0.63,0],[0.72,0.99,0],[0.5,1,0],[0.28,0.99,0]];shape=mxgraph.kubernetes.icon;prIcon=pod" vertex="1" parent="1">
          <mxGeometry x="-71.02999999999997" y="4310" width="29" height="30" as="geometry" />
        </mxCell>
        <mxCell id="vNbZXF4qumSnnVeQtQN_-117" value="" style="ellipse;whiteSpace=wrap;html=1;aspect=fixed;fillColor=none;" vertex="1" parent="1">
          <mxGeometry x="12" y="4200" width="50" height="50" as="geometry" />
        </mxCell>
        <mxCell id="vNbZXF4qumSnnVeQtQN_-118" value="" style="html=1;dashed=0;whitespace=wrap;fillColor=#2875E2;strokeColor=#ffffff;points=[[0.005,0.63,0],[0.1,0.2,0],[0.9,0.2,0],[0.5,0,0],[0.995,0.63,0],[0.72,0.99,0],[0.5,1,0],[0.28,0.99,0]];shape=mxgraph.kubernetes.icon;prIcon=pod" vertex="1" parent="1">
          <mxGeometry x="22.5" y="4210" width="29" height="30" as="geometry" />
        </mxCell>
        <mxCell id="vNbZXF4qumSnnVeQtQN_-121" value="" style="ellipse;whiteSpace=wrap;html=1;aspect=fixed;fillColor=none;" vertex="1" parent="1">
          <mxGeometry x="15" y="4280" width="50" height="50" as="geometry" />
        </mxCell>
        <mxCell id="vNbZXF4qumSnnVeQtQN_-122" value="" style="html=1;dashed=0;whitespace=wrap;fillColor=#2875E2;strokeColor=#ffffff;points=[[0.005,0.63,0],[0.1,0.2,0],[0.9,0.2,0],[0.5,0,0],[0.995,0.63,0],[0.72,0.99,0],[0.5,1,0],[0.28,0.99,0]];shape=mxgraph.kubernetes.icon;prIcon=pod" vertex="1" parent="1">
          <mxGeometry x="25.5" y="4290" width="29" height="30" as="geometry" />
        </mxCell>
        <mxCell id="vNbZXF4qumSnnVeQtQN_-123" value="" style="endArrow=classic;html=1;strokeWidth=1;" edge="1" parent="1">
          <mxGeometry width="50" height="50" relative="1" as="geometry">
            <mxPoint x="-210" y="4270" as="sourcePoint" />
            <mxPoint x="-22" y="4270" as="targetPoint" />
          </mxGeometry>
        </mxCell>
        <mxCell id="vNbZXF4qumSnnVeQtQN_-124" value="" style="endArrow=none;html=1;strokeWidth=1;exitX=0;exitY=0.5;exitDx=0;exitDy=0;" edge="1" parent="1" source="vNbZXF4qumSnnVeQtQN_-121">
          <mxGeometry width="50" height="50" relative="1" as="geometry">
            <mxPoint x="-39.5" y="4270" as="sourcePoint" />
            <mxPoint x="10.5" y="4220" as="targetPoint" />
            <Array as="points">
              <mxPoint x="-20" y="4305" />
              <mxPoint x="-20" y="4220" />
            </Array>
          </mxGeometry>
        </mxCell>
        <mxCell id="vNbZXF4qumSnnVeQtQN_-125" value="" style="endArrow=none;html=1;strokeWidth=2;fillColor=#d80073;strokeColor=#A50040;exitX=0;exitY=1;exitDx=0;exitDy=0;" edge="1" parent="1" source="vNbZXF4qumSnnVeQtQN_-99">
          <mxGeometry width="50" height="50" relative="1" as="geometry">
            <mxPoint x="-89.5" y="4230" as="sourcePoint" />
            <mxPoint x="-39.5" y="4180" as="targetPoint" />
          </mxGeometry>
        </mxCell>
        <mxCell id="vNbZXF4qumSnnVeQtQN_-132" value="" style="endArrow=none;html=1;strokeWidth=2;fillColor=#d80073;strokeColor=#A50040;exitX=1;exitY=1;exitDx=0;exitDy=0;" edge="1" parent="1" source="vNbZXF4qumSnnVeQtQN_-99">
          <mxGeometry width="50" height="50" relative="1" as="geometry">
            <mxPoint x="-50" y="4230" as="sourcePoint" />
            <mxPoint x="-73.63" y="4180" as="targetPoint" />
          </mxGeometry>
        </mxCell>
        <mxCell id="vNbZXF4qumSnnVeQtQN_-134" value="" style="ellipse;whiteSpace=wrap;html=1;aspect=fixed;fillColor=none;" vertex="1" parent="1">
          <mxGeometry x="381.53" y="4230" width="50" height="50" as="geometry" />
        </mxCell>
        <mxCell id="vNbZXF4qumSnnVeQtQN_-135" value="" style="html=1;dashed=0;whitespace=wrap;fillColor=none;points=[[0.005,0.63,0],[0.1,0.2,0],[0.9,0.2,0],[0.5,0,0],[0.995,0.63,0],[0.72,0.99,0],[0.5,1,0],[0.28,0.99,0]];shape=mxgraph.kubernetes.icon;prIcon=pod" vertex="1" parent="1">
          <mxGeometry x="390.5" y="4240" width="29" height="30" as="geometry" />
        </mxCell>
        <mxCell id="vNbZXF4qumSnnVeQtQN_-137" value="" style="endArrow=classic;html=1;strokeWidth=1;" edge="1" parent="1">
          <mxGeometry width="50" height="50" relative="1" as="geometry">
            <mxPoint x="170" y="4260" as="sourcePoint" />
            <mxPoint x="380" y="4260" as="targetPoint" />
          </mxGeometry>
        </mxCell>
        <mxCell id="vNbZXF4qumSnnVeQtQN_-138" value="" style="endArrow=none;html=1;strokeWidth=2;fillColor=#d80073;strokeColor=#A50040;" edge="1" parent="1">
          <mxGeometry width="50" height="50" relative="1" as="geometry">
            <mxPoint x="427.09" y="4235" as="sourcePoint" />
            <mxPoint x="385.95999999999987" y="4275" as="targetPoint" />
          </mxGeometry>
        </mxCell>
        <mxCell id="vNbZXF4qumSnnVeQtQN_-139" value="" style="endArrow=none;html=1;strokeWidth=2;fillColor=#d80073;strokeColor=#A50040;" edge="1" parent="1">
          <mxGeometry width="50" height="50" relative="1" as="geometry">
            <mxPoint x="386.06" y="4235" as="sourcePoint" />
            <mxPoint x="427" y="4275" as="targetPoint" />
          </mxGeometry>
        </mxCell>
      </root>
    </mxGraphModel>
  </diagram>
</mxfile>
